<svg width="316.57202" height="107.3999" viewBox="0 0 316.57201 107.3999" xmlns="http://www.w3.org/2000/svg"><defs><clipPath clipPathUnits="userSpaceOnUse" id="a"><path d="M0 612.288h858.897V0H0Z" transform="translate(-240.2354 -394.63381)"/></clipPath><clipPath clipPathUnits="userSpaceOnUse" id="b"><path d="M0 612.288h858.897V0H0Z" transform="translate(-226.15933 -397.73051)"/></clipPath><clipPath clipPathUnits="userSpaceOnUse" id="c"><path d="M0 612.288h858.897V0H0Z" transform="translate(-207.48253 -393.36331)"/></clipPath><clipPath clipPathUnits="userSpaceOnUse" id="d"><path d="M0 612.288h858.897V0H0Z" transform="translate(-136.29987 -394.63381)"/></clipPath><clipPath clipPathUnits="userSpaceOnUse" id="e"><path d="M0 612.288h858.897V0H0Z" transform="translate(-143.31552 -397.73051)"/></clipPath><clipPath clipPathUnits="userSpaceOnUse" id="f"><path d="M0 612.288h858.897V0H0Z" transform="translate(-151.55577 -397.73051)"/></clipPath><clipPath clipPathUnits="userSpaceOnUse" id="g"><path d="M0 612.288h858.897V0H0Z" transform="translate(-159.2726 -393.36331)"/></clipPath><clipPath clipPathUnits="userSpaceOnUse" id="h"><path d="M0 612.288h858.897V0H0Z" transform="translate(-168.04107 -392.28121)"/></clipPath><clipPath clipPathUnits="userSpaceOnUse" id="i"><path d="M0 612.288h858.897V0H0Z" transform="translate(-204.21013 -393.88481)"/></clipPath><clipPath clipPathUnits="userSpaceOnUse" id="j"><path d="M0 612.288h858.897V0H0Z" transform="translate(-214.6046 -397.73051)"/></clipPath><clipPath clipPathUnits="userSpaceOnUse" id="k"><path d="M0 612.288h858.897V0H0Z" transform="translate(-222.68368 -396.81541)"/></clipPath><clipPath clipPathUnits="userSpaceOnUse" id="l"><path d="M0 612.288h858.897V0H0Z" transform="translate(-234.82633 -395.42971)"/></clipPath><clipPath clipPathUnits="userSpaceOnUse" id="m"><path d="M0 612.288h858.897V0H0Z" transform="translate(-247.24813 -397.73051)"/></clipPath><clipPath clipPathUnits="userSpaceOnUse" id="n"><path d="M0 612.288h858.897V0H0Z" transform="translate(-252.75403 -398.13281)"/></clipPath><clipPath clipPathUnits="userSpaceOnUse" id="o"><path d="M0 612.288h858.897V0H0Z" transform="translate(-260.75203 -395.40621)"/></clipPath><clipPath clipPathUnits="userSpaceOnUse" id="p"><path d="M0 612.288h858.897V0H0Z" transform="translate(-172.81647 -397.73051)"/></clipPath><clipPath clipPathUnits="userSpaceOnUse" id="q"><path d="M0 612.288h858.897V0H0Z" transform="translate(-181.05672 -397.73051)"/></clipPath><clipPath clipPathUnits="userSpaceOnUse" id="r"><path d="M0 612.288h858.897V0H0Z" transform="translate(-188.77647 -393.36331)"/></clipPath><clipPath clipPathUnits="userSpaceOnUse" id="s"><path d="M0 612.288h858.897V0H0Z" transform="translate(-146.72667 -413.74411)"/></clipPath><clipPath clipPathUnits="userSpaceOnUse" id="t"><path d="M0 612.288h858.897V0H0Z" transform="translate(-141.25197 -415.95211)"/></clipPath><clipPath clipPathUnits="userSpaceOnUse" id="u"><path d="M0 612.288h858.897V0H0Z" transform="translate(-155.00112 -421.62211)"/></clipPath><clipPath clipPathUnits="userSpaceOnUse" id="v"><path d="M0 612.288h858.897V0H0Z" transform="translate(-156.2696 -416.84961)"/></clipPath><clipPath clipPathUnits="userSpaceOnUse" id="w"><path d="M0 612.288h858.897V0H0Z" transform="translate(-139.61832 -430.19871)"/></clipPath><clipPath clipPathUnits="userSpaceOnUse" id="x"><path d="M0 612.288h858.897V0H0Z" transform="translate(-145.75887 -428.86331)"/></clipPath><clipPath clipPathUnits="userSpaceOnUse" id="y"><path d="M0 612.288h858.897V0H0Z" transform="translate(-179.86527 -418.71781)"/></clipPath><clipPath clipPathUnits="userSpaceOnUse" id="z"><path d="M0 612.288h858.897V0H0Z" transform="translate(-182.09967 -426.46091)"/></clipPath><clipPath clipPathUnits="userSpaceOnUse" id="A"><path d="M0 612.288h858.897V0H0Z" transform="translate(-192.61137 -434.77051)"/></clipPath><clipPath clipPathUnits="userSpaceOnUse" id="B"><path d="M0 612.288h858.897V0H0Z" transform="translate(-189.10752 -427.46091)"/></clipPath><clipPath clipPathUnits="userSpaceOnUse" id="C"><path d="M0 612.288h858.897V0H0Z" transform="translate(-226.6808 -412.26171)"/></clipPath><clipPath clipPathUnits="userSpaceOnUse" id="D"><path d="M0 612.288h858.897V0H0Z" transform="translate(-220.67878 -424.99221)"/></clipPath><clipPath clipPathUnits="userSpaceOnUse" id="E"><path d="M0 612.288h858.897V0H0Z" transform="translate(-249.5108 -428.66411)"/></clipPath><clipPath clipPathUnits="userSpaceOnUse" id="F"><path d="M0 612.288h858.897V0H0Z" transform="translate(-254.1173 -431.33401)"/></clipPath><clipPath clipPathUnits="userSpaceOnUse" id="G"><path d="M0 612.288h858.897V0H0Z" transform="translate(-246.57628 -428.46291)"/></clipPath><clipPath clipPathUnits="userSpaceOnUse" id="H"><path d="M0 612.288h858.897V0H0Z" transform="translate(-256.72183 -415.94731)"/></clipPath><clipPath clipPathUnits="userSpaceOnUse" id="I"><path d="M0 612.288h858.897V0H0Z" transform="translate(-244.57243 -422.06641)"/></clipPath><clipPath clipPathUnits="userSpaceOnUse" id="J"><path d="M0 612.288h858.897V0H0Z" transform="translate(-146.7755 -427.87701)"/></clipPath><clipPath clipPathUnits="userSpaceOnUse" id="K"><path d="M0 612.288h858.897V0H0Z" transform="translate(-99.122222 -437.50201)"/></clipPath><clipPath clipPathUnits="userSpaceOnUse" id="L"><path d="M0 612.288h858.897V0H0Z" transform="translate(-101.21487 -436.48051)"/></clipPath><clipPath clipPathUnits="userSpaceOnUse" id="M"><path d="M0 612.288h858.897V0H0Z" transform="translate(-107.88882 -436.49511)"/></clipPath><clipPath clipPathUnits="userSpaceOnUse" id="N"><path d="M0 612.288h858.897V0H0Z" transform="translate(-112.3253 -431.66021)"/></clipPath><clipPath clipPathUnits="userSpaceOnUse" id="O"><path d="M0 612.288h858.897V0H0Z" transform="translate(-114.35262 -430.09861)"/></clipPath><clipPath clipPathUnits="userSpaceOnUse" id="P"><path d="M0 612.288h858.897V0H0Z" transform="translate(-115.69347 -423.18851)"/></clipPath><clipPath clipPathUnits="userSpaceOnUse" id="Q"><path d="M0 612.288h858.897V0H0Z" transform="translate(-116.297 -418.96291)"/></clipPath><clipPath clipPathUnits="userSpaceOnUse" id="R"><path d="M0 612.288h858.897V0H0Z" transform="translate(-118.46982 -413.34961)"/></clipPath><clipPath clipPathUnits="userSpaceOnUse" id="S"><path d="M0 612.288h858.897V0H0Z" transform="translate(-117.878 -408.65041)"/></clipPath><clipPath clipPathUnits="userSpaceOnUse" id="T"><path d="M0 612.288h858.897V0H0Z" transform="translate(-113.13777 -403.72271)"/></clipPath><clipPath clipPathUnits="userSpaceOnUse" id="U"><path d="M0 612.288h858.897V0H0Z" transform="translate(-76.245197 -402.25101)"/></clipPath><clipPath clipPathUnits="userSpaceOnUse" id="V"><path d="M0 612.288h858.897V0H0Z" transform="translate(-71.214872 -406.41021)"/></clipPath><clipPath clipPathUnits="userSpaceOnUse" id="W"><path d="M0 612.288h858.897V0H0Z" transform="translate(-69.417122 -413.34571)"/></clipPath><clipPath clipPathUnits="userSpaceOnUse" id="X"><path d="M0 612.288h858.897V0H0Z" transform="translate(-72.591872 -419.19141)"/></clipPath><clipPath clipPathUnits="userSpaceOnUse" id="Y"><path d="M0 612.288h858.897V0H0Z" transform="translate(-75.211022 -424.66111)"/></clipPath><clipPath clipPathUnits="userSpaceOnUse" id="Z"><path d="M0 612.288h858.897V0H0Z" transform="translate(-73.501997 -430.00291)"/></clipPath><clipPath clipPathUnits="userSpaceOnUse" id="aa"><path d="M0 612.288h858.897V0H0Z" transform="translate(-78.360422 -435.26071)"/></clipPath><clipPath clipPathUnits="userSpaceOnUse" id="ab"><path d="M0 612.288h858.897V0H0Z" transform="translate(-84.869222 -435.69431)"/></clipPath><clipPath clipPathUnits="userSpaceOnUse" id="ac"><path d="M0 612.288h858.897V0H0Z" transform="translate(-82.058672 -396.66601)"/></clipPath><clipPath clipPathUnits="userSpaceOnUse" id="ad"><path d="M0 612.288h858.897V0H0Z" transform="translate(-107.1095 -396.66601)"/></clipPath><clipPath clipPathUnits="userSpaceOnUse" id="ae"><path d="M0 612.288h858.897V0H0Z" transform="translate(-93.952172 -443.14261)"/></clipPath><clipPath clipPathUnits="userSpaceOnUse" id="af"><path d="M0 612.288h858.897V0H0Z" transform="translate(-86.540072 -392.75291)"/></clipPath><clipPath clipPathUnits="userSpaceOnUse" id="ag"><path d="M0 612.288h858.897V0H0Z" transform="translate(-91.190522 -393.23541)"/></clipPath><clipPath clipPathUnits="userSpaceOnUse" id="ah"><path d="M0 612.288h858.897V0H0Z" transform="translate(-96.086972 -395.81051)"/></clipPath><clipPath clipPathUnits="userSpaceOnUse" id="ai"><path d="M0 612.288h858.897V0H0Z" transform="translate(-101.67387 -395.19341)"/></clipPath><clipPath clipPathUnits="userSpaceOnUse" id="aj"><path d="M0 612.288h858.897V0H0Z" transform="translate(-89.098697 -413.71291)"/></clipPath><clipPath clipPathUnits="userSpaceOnUse" id="ak"><path d="M0 612.288h858.897V0H0Z" transform="translate(-90.787172 -410.22071)"/></clipPath><clipPath clipPathUnits="userSpaceOnUse" id="al"><path d="M0 612.288h858.897V0H0Z" transform="translate(-102.9503 -416.38871)"/></clipPath><clipPath clipPathUnits="userSpaceOnUse" id="am"><path d="M0 612.288h858.897V0H0Z" transform="translate(-101.96097 -423.10351)"/></clipPath><clipPath clipPathUnits="userSpaceOnUse" id="an"><path d="M0 612.288h858.897V0H0Z" transform="translate(-98.477597 -423.04881)"/></clipPath></defs><g style="display:inline"><path d="M2528.5873 1079.6961h-316.572V972.29612h316.572z" style="fill:#8d1d41;fill-opacity:1;fill-rule:nonzero;stroke:none;stroke-width:1.33333" transform="translate(-2212.0155 -972.29616)"/><path d="M0 0c0 .117.038.147.097.147C.196.147.196 0 .235-.21c.236-1.247.863-2.328 2.162-2.328.855 0 1.575.343 1.575 1.1C3.972.55.038-.425.038 2.017c0 1.159.983 2.023 2.204 2.023.922 0 1.416-.391 1.692-.391.342 0 .197.276.375.276.067 0 .106-.031.115-.182l.179-1.858c.021-.185.029-.276.029-.323 0-.065-.029-.1-.077-.1-.101 0-.11.177-.268.572-.432 1.092-1.036 1.642-2.058 1.642-.588 0-1.248-.341-1.248-1.004 0-1.61 3.995-.638 3.995-3.304 0-1.306-1.102-2.308-2.587-2.308-.973 0-1.436.449-1.819.449-.385 0-.324-.332-.493-.332-.05 0-.077.017-.077.086Z" style="fill:#ba9959;fill-opacity:1;fill-rule:nonzero;stroke:none" transform="matrix(1.33333 0 0 -1.33333 258.9937 84.74024)" clip-path="url(#a)"/><path d="M0 0c0 .788-.846.403-.846.678 0 .079.041.128.199.128C-.146.806.326.788.721.788c1.216 0 2.381.009 3.539.018l.492-1.878c.039-.149.06-.227.06-.256 0-.05-.029-.081-.098-.081-.089 0-.081.171-.464.807C3.789.166 3.149.402 1.969.402h-.532v-2.537h.248c.687 0 1.19.385 1.229 1.096.009.196.037.245.137.245.06 0 .098-.049.098-.143v-3.009c0-.089-.038-.136-.098-.136-.1 0-.128.047-.137.245-.039.876-.542 1.212-1.229 1.212h-.248v-2.354c0-.451.327-.516.807-.516 1.307 0 2.36.92 2.666 1.895.06.189.069.274.157.274.068 0 .098-.048.098-.107 0-.057-.019-.177-.038-.286l-.434-2.183c-1.297.01-2.605.021-3.972.021-.395 0-.867-.021-1.368-.021-.158 0-.199.048-.199.126 0 .276.846-.105.846.681Z" style="fill:#ba9959;fill-opacity:1;fill-rule:nonzero;stroke:none" transform="matrix(1.33333 0 0 -1.33333 240.2256 80.61124)" clip-path="url(#b)"/><path d="M0 0c0-.789.315-1.11.609-1.24.277-.115.533-.021.533-.186 0-.06-.021-.109-.14-.109-.331 0-1.059.021-1.463.021-.402 0-.784-.021-1.121-.021-.116 0-.137.049-.137.109 0 .165.255.071.532.186.295.13.609.451.609 1.24v4.299c-.325.472-.603.598-.914.637-.157.022-.227.022-.227.128 0 .078.039.109.117.109.335 0 .699-.018 1.064-.018H.564l3.091-3.87.13-.16v2.512c0 .786-.313 1.113-.608 1.243-.278.118-.533.017-.533.184 0 .06.02.109.137.109.335 0 1.037-.018 1.442-.018.402 0 .787.018 1.12.018.12 0 .137-.049.137-.109 0-.167-.253-.066-.53-.184-.295-.13-.609-.457-.609-1.243v-5.063c0-.186-.012-.324-.091-.324-.087 0-.156.118-.245.236L.051 3.514 0 3.589Z" style="fill:#ba9959;fill-opacity:1;fill-rule:nonzero;stroke:none" transform="matrix(1.33333 0 0 -1.33333 215.3232 86.43424)" clip-path="url(#c)"/><path d="M0 0c0 .117.041.147.1.147C.196.147.196 0 .236-.21c.239-1.247.863-2.328 2.164-2.328.857 0 1.576.343 1.576 1.1C3.976.55.041-.425.041 2.017c0 1.159.982 2.023 2.202 2.023.926 0 1.418-.391 1.694-.391.342 0 .197.276.374.276.069 0 .107-.031.117-.182l.177-1.858c.021-.185.03-.276.03-.323 0-.065-.03-.1-.079-.1-.098 0-.11.177-.264.572-.433 1.092-1.036 1.642-2.058 1.642-.591 0-1.248-.341-1.248-1.004 0-1.61 3.993-.638 3.993-3.304 0-1.306-1.102-2.308-2.587-2.308-.974 0-1.435.449-1.819.449-.385 0-.324-.332-.493-.332-.049 0-.08.017-.08.086z" style="fill:#ba9959;fill-opacity:1;fill-rule:nonzero;stroke:none" transform="matrix(1.33333 0 0 -1.33333 120.413 84.74024)" clip-path="url(#d)"/><path d="M0 0c0 .788-.847.403-.847.678 0 .079.038.128.197.128C-.149.806.32.788.715.788s.868.018 1.367.018c.159 0 .197-.049.197-.128 0-.275-.844.11-.844-.678v-2.135h2.578V0c0 .788-.846.403-.846.678 0 .079.039.128.195.128.501 0 .976-.018 1.367-.018.394 0 .867.018 1.368.018.156 0 .196-.049.196-.128 0-.275-.846.11-.846-.678v-5.095c0-.786.846-.405.846-.681 0-.078-.04-.126-.196-.126-.501 0-.974.021-1.368.021-.391 0-.866-.021-1.367-.021-.156 0-.195.048-.195.126 0 .276.846-.105.846.681v2.47H1.435v-2.47c0-.786.844-.405.844-.681 0-.078-.038-.126-.197-.126-.499 0-.972.021-1.367.021s-.864-.021-1.365-.021c-.159 0-.197.048-.197.126 0 .276.847-.105.847.681Z" style="fill:#ba9959;fill-opacity:1;fill-rule:nonzero;stroke:none" transform="matrix(1.33333 0 0 -1.33333 129.7672 80.61124)" clip-path="url(#e)"/><path d="M0 0c0 .788-.846.403-.846.678 0 .079.038.128.197.128C-.147.806.325.788.718.788c1.219 0 2.381.009 3.54.018l.491-1.878c.04-.149.061-.227.061-.256 0-.05-.031-.081-.098-.081-.09 0-.08.171-.463.807C3.787.166 3.147.402 1.966.402h-.531v-2.537h.248c.686 0 1.189.385 1.228 1.096.009.196.04.245.139.245.06 0 .097-.049.097-.143v-3.009c0-.089-.037-.136-.097-.136-.099 0-.13.047-.139.245-.039.876-.542 1.212-1.228 1.212h-.248v-2.354c0-.451.329-.516.808-.516 1.305 0 2.36.92 2.667 1.895.059.189.066.274.157.274.065 0 .097-.048.097-.107 0-.057-.02-.177-.04-.286l-.433-2.183c-1.297.01-2.606.021-3.973.021-.393 0-.865-.021-1.367-.021-.159 0-.197.048-.197.126 0 .276.846-.105.846.681Z" style="fill:#ba9959;fill-opacity:1;fill-rule:nonzero;stroke:none" transform="matrix(1.33333 0 0 -1.33333 140.7542 80.61124)" clip-path="url(#f)"/><path d="M0 0c0-.789.315-1.11.61-1.24.278-.115.533-.021.533-.186 0-.06-.022-.109-.141-.109-.332 0-1.059.021-1.462.021-.402 0-.785-.021-1.122-.021-.117 0-.136.049-.136.109 0 .165.254.071.531.186.294.13.609.451.609 1.24v4.299c-.323.472-.602.598-.914.637-.158.022-.226.022-.226.128 0 .078.039.109.117.109.334 0 .7-.018 1.063-.018H.564l3.09-3.87.13-.16v2.512c0 .786-.311 1.113-.607 1.243-.277.118-.533.017-.533.184 0 .06.02.109.139.109.333 0 1.035-.018 1.441-.018.402 0 .785.018 1.121.018.117 0 .135-.049.135-.109 0-.167-.254-.066-.529-.184-.296-.13-.61-.457-.61-1.243v-5.063c0-.186-.01-.324-.087-.324-.092 0-.159.118-.249.236L.054 3.514 0 3.589Z" style="fill:#ba9959;fill-opacity:1;fill-rule:nonzero;stroke:none" transform="matrix(1.33333 0 0 -1.33333 151.0433 86.43424)" clip-path="url(#g)"/><path d="M0 0c1.387 0 1.679.303 2.104.914.431.62.422 1.209.589 1.209.038 0 .088-.027.088-.106 0-.058-.03-.208-.069-.396L2.309-.453c-.788.011-1.595.021-2.4.021-.807 0-1.614-.021-2.421-.021-.078 0-.117.049-.117.089 0 .048.039.118.108.234L.992 5.761H.399c-1.331 0-1.63-.146-2.104-.913-.423-.688-.344-.808-.471-.808-.061 0-.079.031-.079.081 0 .029.018.108.06.256l.49 1.878c.709 0 1.428-.018 2.155-.018.727 0 1.447.018 2.194.018.127 0 .157-.031.157-.078 0-.05-.07-.159-.147-.294L-.805 0Z" style="fill:#ba9959;fill-opacity:1;fill-rule:nonzero;stroke:none" transform="matrix(1.33333 0 0 -1.33333 162.7346 87.87704)" clip-path="url(#h)"/><path d="M0 0c0-1.467-1.002-2.191-2.378-2.191-1.537 0-2.52.706-2.52 1.729v4.308c0 .788-.847.403-.847.677 0 .08.039.128.198.128.502 0 .976-.017 1.367-.017.394 0 .867.017 1.366.017.16 0 .198-.048.198-.128 0-.274-.844.111-.844-.677V-.462c0-.808.782-1.347 1.484-1.347.83 0 1.472.579 1.472 1.75V2.92c0 .848-.314 1.329-.767 1.478-.149.049-.296.054-.296.145 0 .06.018.108.137.108.256 0 .91-.017 1.313-.017.403 0 .786.017 1.043.017.117 0 .136-.048.136-.108 0-.091-.146-.096-.293-.145C.316 4.249 0 3.768 0 2.92Z" style="fill:#ba9959;fill-opacity:1;fill-rule:nonzero;stroke:none" transform="matrix(1.33333 0 0 -1.33333 210.96 85.73884)" clip-path="url(#i)"/><path d="M0 0c0 .788-.847.403-.847.678 0 .079.04.128.198.128C-.147.806.326.788.718.788c.394 0 .866.018 1.367.018.159 0 .197-.049.197-.128 0-.275-.846.11-.846-.678v-5.095c0-.786.846-.405.846-.681 0-.078-.038-.126-.197-.126-.501 0-.973.021-1.367.021-.392 0-.865-.021-1.367-.021-.158 0-.198.048-.198.126 0 .276.847-.105.847.681Z" style="fill:#ba9959;fill-opacity:1;fill-rule:nonzero;stroke:none" transform="matrix(1.33333 0 0 -1.33333 224.8193 80.61124)" clip-path="url(#j)"/><path d="M0 0c.079.198.184.49.184.706 0 .961-.901.661-.901.906 0 .05.059.109.164.109.34 0 .661-.018.997-.018.324 0 .957.018 1.294.018.195 0 .313-.04.313-.128 0-.282-.756.119-1.336-1.299l-2.134-5.192c-.053-.119-.1-.224-.158-.224-.059 0-.109.105-.158.224L-4.104.847c-.347.825-.907.581-.907.779 0 .046.051.095.139.095.502 0 .944-.018 1.397-.018.442 0 .893.018 1.337.018.176 0 .235-.04.235-.109 0-.208-.688.05-.688-.469 0-.139.04-.267.079-.367l1.379-3.482z" style="fill:#ba9959;fill-opacity:1;fill-rule:nonzero;stroke:none" transform="matrix(1.33333 0 0 -1.33333 235.5914 81.83144)" clip-path="url(#k)"/><path d="M0 0h.382c1.112 0 1.604.498 1.604 1.34 0 .935-.531 1.356-1.367 1.356H0Zm1.265-1.093C1.033-.602.568-.521 0-.521v-2.273c0-.786.846-.405.846-.682 0-.077-.039-.126-.198-.126-.502 0-.974.022-1.367.022-.394 0-.865-.022-1.368-.022-.156 0-.198.049-.198.126 0 .277.848-.104.848.682v5.095c0 .788-.848.403-.848.678 0 .079.042.127.198.127.503 0 .974-.017 1.368-.017.491 0 .915.017 1.565.017 1.681 0 2.575-.75 2.575-1.75 0-.827-.512-1.514-2.536-1.732v-.019c1.051 0 1.622-.253 2.005-.991l.738-1.428c.404-.777 1.054-.403 1.054-.678 0-.061-.011-.11-.1-.11-.354 0-.707.022-1.061.022H2.459Z" style="fill:#ba9959;fill-opacity:1;fill-rule:nonzero;stroke:none" transform="matrix(1.33333 0 0 -1.33333 251.7816 83.67904)" clip-path="url(#l)"/><path d="M0 0c0 .788-.848.403-.848.678 0 .079.038.128.198.128.5 0 .97-.018 1.367-.018.391 0 .864.018 1.367.018.156 0 .195-.049.195-.128 0-.275-.845.11-.845-.678v-5.095c0-.786.845-.405.845-.681 0-.078-.039-.126-.195-.126-.503 0-.976.021-1.367.021-.397 0-.867-.021-1.367-.021-.16 0-.198.048-.198.126 0 .276.848-.105.848.681Z" style="fill:#ba9959;fill-opacity:1;fill-rule:nonzero;stroke:none" transform="matrix(1.33333 0 0 -1.33333 268.344 80.61124)" clip-path="url(#m)"/><path d="M0 0c-1.948-.533-2.048-1.898-2.272-1.898-.049 0-.089.031-.089.099 0 .039.017.197.049.358l.325 1.795c.03.147.057.187.108.187.048 0 .088-.027.137-.068.05-.03.117-.087.257-.087h4.407c.138 0 .206.057.254.087.05.041.091.068.139.068.049 0 .078-.04.108-.187l.324-1.795c.031-.161.05-.319.05-.358 0-.068-.04-.099-.088-.099-.227 0-.325 1.365-2.273 1.898v-5.303c0-.628.305-.767.79-.767.114 0 .172-.028.172-.125 0-.078-.047-.11-.155-.11-.562 0-1.062.022-1.523.022-.465 0-.966-.022-1.526-.022-.109 0-.158.032-.158.11 0 .097.06.125.177.125.481 0 .787.139.787.767z" style="fill:#ba9959;fill-opacity:1;fill-rule:nonzero;stroke:none" transform="matrix(1.33333 0 0 -1.33333 275.6852 80.07484)" clip-path="url(#n)"/><path d="m0 0 .735 1.144c.256.45.354.897.354 1.16 0 .66-.609.56-.609.717 0 .06.057.109.196.109.315 0 .69-.018 1.084-.018.304 0 .62.018.913.018.067 0 .107-.04.107-.095 0-.198-.46.064-1.394-1.498L.224-.401v-2.37c0-.786.845-.405.845-.681 0-.077-.04-.126-.195-.126-.503 0-.976.021-1.367.021-.396 0-.868-.021-1.367-.021-.16 0-.199.049-.199.126 0 .276.846-.105.846.681v2.184l-1.583 2.882c-.423.776-.975.518-.975.726 0 .069.06.109.168.109.482 0 .936-.018 1.398-.018.464 0 .914.018 1.377.018.145 0 .217-.031.217-.095 0-.21-.62.026-.62-.523 0-.17.059-.326.174-.551z" style="fill:#ba9959;fill-opacity:1;fill-rule:nonzero;stroke:none" transform="matrix(1.33333 0 0 -1.33333 286.3492 83.71034)" clip-path="url(#o)"/><path d="M0 0c0 .788-.845.403-.845.678 0 .079.039.128.198.128.5 0 .971-.018 1.366-.018.392 0 .866.018 1.367.018.158 0 .196-.049.196-.128 0-.275-.845.11-.845-.678v-2.135h2.578V0c0 .788-.846.403-.846.678 0 .079.039.128.196.128.502 0 .972-.018 1.366-.018.394 0 .867.018 1.368.018.158 0 .196-.049.196-.128 0-.275-.848.11-.848-.678v-5.095c0-.786.848-.405.848-.681 0-.078-.038-.126-.196-.126-.501 0-.974.021-1.368.021-.394 0-.864-.021-1.366-.021-.157 0-.196.048-.196.126 0 .276.846-.105.846.681v2.47H1.437v-2.47c0-.786.845-.405.845-.681 0-.078-.038-.126-.196-.126-.501 0-.975.021-1.367.021-.395 0-.866-.021-1.366-.021-.159 0-.198.048-.198.126 0 .276.845-.105.845.681Z" style="fill:#ba9959;fill-opacity:1;fill-rule:nonzero;stroke:none" transform="matrix(1.33333 0 0 -1.33333 169.1018 80.61124)" clip-path="url(#p)"/><path d="M0 0c0 .788-.844.403-.844.678 0 .079.039.128.197.128.5 0 .972-.018 1.367-.018 1.219 0 2.381.009 3.541.018l.491-1.878c.041-.149.06-.227.06-.256 0-.05-.03-.081-.099-.081-.088 0-.078.171-.461.807C3.79.166 3.15.402 1.97.402h-.532v-2.537h.248c.688 0 1.189.385 1.229 1.096.007.196.037.245.136.245.062 0 .099-.049.099-.143v-3.009c0-.089-.037-.136-.099-.136-.099 0-.129.047-.136.245-.04.876-.541 1.212-1.229 1.212h-.248v-2.354c0-.451.327-.516.806-.516 1.305 0 2.36.92 2.666 1.895.059.189.069.274.158.274.069 0 .096-.048.096-.107 0-.057-.019-.177-.036-.286l-.434-2.183c-1.298.01-2.607.021-3.974.021-.395 0-.867-.021-1.367-.021-.158 0-.197.048-.197.126 0 .276.844-.105.844.681Z" style="fill:#ba9959;fill-opacity:1;fill-rule:nonzero;stroke:none" transform="matrix(1.33333 0 0 -1.33333 180.0888 80.61124)" clip-path="url(#q)"/><path d="M0 0c0-.789.314-1.11.612-1.24.274-.115.531-.021.531-.186 0-.06-.021-.109-.141-.109-.332 0-1.058.021-1.463.021-.4 0-.784-.021-1.12-.021-.116 0-.136.049-.136.109 0 .165.253.071.53.186.295.13.61.451.61 1.24v4.299c-.323.472-.603.598-.914.637-.158.022-.226.022-.226.128 0 .078.039.109.115.109.336 0 .702-.018 1.065-.018h1.1l3.092-3.87.132-.16v2.512c0 .786-.314 1.113-.61 1.243-.276.118-.531.017-.531.184 0 .06.02.109.137.109.335 0 1.036-.018 1.441-.018.403 0 .786.018 1.121.018.119 0 .136-.049.136-.109 0-.167-.255-.066-.53-.184-.295-.13-.609-.457-.609-1.243v-5.063c0-.186-.011-.324-.089-.324-.089 0-.159.118-.247.236L.054 3.514 0 3.589Z" style="fill:#ba9959;fill-opacity:1;fill-rule:nonzero;stroke:none" transform="matrix(1.33333 0 0 -1.33333 190.3818 86.43424)" clip-path="url(#r)"/><path d="M0 0c-1.17-.533-2.337-1.833-2.537-2.836-.1-1.635 1.268-2.202 2.537-2.736.3.067.5.067.734.467.4 1.468.833 2.302 1.769 3.404 0 .101 0 .201.032.301C2.201.336 1.102.502 0 0" style="fill:#ba9959;fill-opacity:1;fill-rule:evenodd;stroke:none" transform="matrix(1.33333 0 0 -1.33333 134.3154 59.25984)" clip-path="url(#s)"/><path d="M0 0c-1.533.834-.633 5.568-.467 6.839C0 8.073.468 10.008.4 11.21c-1.033 1.869-1.534 1.701-2.969.801C-5.071 8.706-4.872 5.436-4.806.999c.268-2.17.268-6.075 2.47-7.477 2.065.366 3.839 4.573 3.705 6.841C.901 1.231.77.032 0 0" style="fill:#ba9959;fill-opacity:1;fill-rule:evenodd;stroke:none" transform="matrix(1.33333 0 0 -1.33333 127.0158 56.31584)" clip-path="url(#t)"/><path d="M0 0c.268.1.669.233 1.036.432.801.367 1.501.969.568 1.905-.167.031-.368.031-.568.031-1.435-.031-3.938-1.034-4.038 1.137C-2.235 4.672-.6 6.606-.466 7.976c-1.101.366-1.001.601-.969 1.635.14.072.204.119.291.214.767.467 1.48 1.322 2.18 2.255.5.635.967 1.302 1.435 1.869.967 2.536 0 3.539-1.435 3.805-1.135.233-2.637-.033-3.638-.301-.5-.266-2.335-1.101-2.302-1.502-.367-.266-.543-.378-.635-.534-.801-1.603-.066-1.937 1.536-2.035.676.263 2.269 2.605 3.271 1.335 0-.2-.168-.434-.133-.635-.068 0 .032 0 0 0-.402-1.068-2.405-2.935-3.004-3.603-.635-1.368.334-2.537.399-4.171-.099-.368-.234-.736-.333-1.135-.935-1.034-1.635-2.703-2.737-3.537C-6.874 1.1-7.842.332-7.975-.135c-.099-.099-.202-.167-.299-.266-.968-.869-1.836-1.902-2.704-2.737 0-.099.035-.2.035-.267.565-.433 1.666-.768 2.669-.866h.5c.069.012.207-.007.207.026.067.034.014.1-.007.141 0 .101 0 .2.034.266 1.033 1.234 1.601 2.269 3.269 2.437-.067-.203.035-1.737.268-9.178-.124-.126-.034-.131-.735-.397-.044-.008-.084-.022-.132-.036-.334-.235-.669-.536-.735-1.069.14-.012.034 0 0 0 .167-1.87.367-3.272 2.036-4.572 1.3.2 1.901 1.767 2.335 3.07.033 1.704.033 1.704-.066 12.849.435.267.866.5 1.3.734" style="fill:#ba9959;fill-opacity:1;fill-rule:evenodd;stroke:none" transform="matrix(1.33333 0 0 -1.33333 145.348 48.75584)" clip-path="url(#u)"/><path d="M0 0c-.065-.035-.132-.066-.232-.1C-.967-.568-1.535-1.635-.5-2.402c.5-1.869-.9-2.337-1.501-3.739.033-.066.033-.166.101-.267.198-.033.433-.066.631-.132.302.066.669.132 1.037.233 1.869.467 4.439 1.268 4.039 3.803C2.838-.468 1.771.134 0 0" style="fill:#ba9959;fill-opacity:1;fill-rule:evenodd;stroke:none" transform="matrix(1.33333 0 0 -1.33333 147.0393 55.11914)" clip-path="url(#v)"/><path d="M0 0c1.334.133 1.634.133 2.603 1.034.058.095.061.061.091.095.034 0 .023.049.043.086.034 1.702-.603 2.846-.935 3.156C-1.403 5.94-3.538 1.702 0 0" style="fill:#ba9959;fill-opacity:1;fill-rule:evenodd;stroke:none" transform="matrix(1.33333 0 0 -1.33333 124.8376 37.32034)" clip-path="url(#w)"/><path d="M0 0c.156-.035.354-.004.535.066.164.135.299.268.433.436.834 1.101 1.468 3.036.901 4.204-.301.166-.636.2-.901.166C-.868 4.706-2.304 1.268 0 0" style="fill:#ba9959;fill-opacity:1;fill-rule:evenodd;stroke:none" transform="matrix(1.33333 0 0 -1.33333 133.025 39.10084)" clip-path="url(#x)"/><path d="M0 0c-.035-.032-.006-.065-.015-.132-.835-.7-1.854-2.639-2.789-2.771-.234 2.235.2 4.471.333 6.54.602 1.202.934 1.202 2.17 1.769.735.435 1.069.802 1.368 1.603V7.442C.967 9.278.4 9.612-1.068 9.847c-.233 1.299-.134 2.501-.201 3.669-.868.935-2.37-.233-2.802-1.034-1.67-1.302-.534-3.038-.735-5.139-.835-.601-2.002-1.369-2.737-2.102-.935-2.071-.533-2.372 1.402-3.171.267-1.035-.399-3.637-.535-4.472.067-1.535-.167-4.338 1.534-5.408C-3.038-7.274 1.101-2.302.967.335.566.401.3.168 0 0" style="fill:#ba9959;fill-opacity:1;fill-rule:evenodd;stroke:none" transform="matrix(1.33333 0 0 -1.33333 178.5002 52.62824)" clip-path="url(#y)"/><path d="M0 0c.067-2.736.034-5.373-.233-8.244-.268-.901-.834-2.168-.934-3.371-.035-.199-.035-.367 0-.567.033-.3.1-.599.233-.867.747.058 1.602.467 2.335 1.469C2.838-8.275 3.306-3.303 3.006.301 2.104 2.637.702 1.502 0 0" style="fill:#ba9959;fill-opacity:1;fill-rule:evenodd;stroke:none" transform="matrix(1.33333 0 0 -1.33333 181.4794 42.30404)" clip-path="url(#z)"/><path d="M0 0c-1.101.434-1.601.033-2.401-.469-.033-.199-.067-.433-.067-.666.267-8.71.501-17.719.067-26.564-.234-.834-.433-1.27.466-1.903 2.071.201 2.439 1.069 2.805 3.27.032 1.97-.057 9.455.066 9.545-.112.673-.049 3.336 0 3.471C.97-6.007.97-6.007.902-1.102.569-.5.369-.266 0 0" style="fill:#ba9959;fill-opacity:1;fill-rule:evenodd;stroke:none" transform="matrix(1.33333 0 0 -1.33333 195.495 31.22464)" clip-path="url(#A)"/><path d="M0 0c-1.7.701-1.9-2.067-2.367-3.236-.201-1.469-1.605-6.507.634-7.577.499.034.765.235 1.201.536C.536-7.308.436-3.67.604-.6.469-.4.101-.133 0 0" style="fill:#ba9959;fill-opacity:1;fill-rule:evenodd;stroke:none" transform="matrix(1.33333 0 0 -1.33333 190.8232 40.97074)" clip-path="url(#B)"/><path d="M0 0c0 .066-.163.049-.163.082C-.321.18-.23.131-.26.157c-.054.056-.21.089-.21.155-.348.1-1.163.918-1.564 1.153 0 .067-.285.152-.285.221-.494.238-.662.567-.895.788-.238.149-.299.176-.518.407-.476.297-.687.619-.827.789-.118.096-.14.151-.174.151-.402.566-.834 1.068-1.269 1.536-.499.567-1 1.099-1.401 1.766-1.068.169-1.671-.266-1.569-1.467.535-1.802 1.636-3.672 2.97-5.306 1.435-1.736 3.137-3.236 4.838-4.205 1.702.066 3.239-.101 4.539 1.336.021.232.1.518-.066.735C2.173-.986 1.037-.467 0 0" style="fill:#ba9959;fill-opacity:1;fill-rule:evenodd;stroke:none" transform="matrix(1.33333 0 0 -1.33333 240.9209 61.23634)" clip-path="url(#C)"/><path d="M0 0c1.668.702 3.37 1.367 2.938 3.906C2.17 5.039 1.802 5.273.801 5.439c-.3-.132-.568-.265-.801-.4-.802-.434-1.169-.666-1.266-.666-.036 1.434-.036 2.67-.269 3.936-.7 1.77-.801 2.07-2.27 2.036-1.267-.266-2.503-1.469-.599-2.403.834-.766.466-3.971-.101-4.772C-6.207 2.303-7.978 1.434-9.611.5c-.733-.834-1.038-1.449-1.035-2.503.4-2.435 1.835-.801 3.538-1.301.201-.267-.134-1.799-.267-1.968-.167-.667-1.324-3.177-1.602-3.47-.567-1.904-3.405-4.006-4.873-4.906-.132-.202-.3-.403-.4-.601.1-1.134 1.036-1.636 2.171-1.837 1.167.1 1.899.1 2.868.969 1.77 2.635 3.587 5.566 4.688 8.637.034.084.028.141.072.176.601 1.868 1.714 4.068 2.848 5.503C-1.134-.467-.565-.231 0 0" style="fill:#ba9959;fill-opacity:1;fill-rule:evenodd;stroke:none" transform="matrix(1.33333 0 0 -1.33333 232.9182 44.26234)" clip-path="url(#D)"/><path d="M0 0c.368.066.636.166.869.332.268.201.501.501.703.902.465 2.302.8 4.472 1.101 6.742-.033.899-.168 1.501-.503 2.268-.733.267-1.067.202-1.301-.133-.135-.2-.266-.501-.433-.868-.5-1.869-.935-3.972-1.268-6.006C-.865 2.069-1.233.767 0 0" style="fill:#ba9959;fill-opacity:1;fill-rule:evenodd;stroke:none" transform="matrix(1.33333 0 0 -1.33333 271.3609 39.36644)" clip-path="url(#E)"/><path d="M0 0c.034-.4-.059-1.276-.162-1.506 0-.257-.259-.547-.439-.709-.107-.1-.504-.702-.56-.777-.7-.768-.917-.531-1.752-1.132-.233-.202-.616-.444-.849-.644-.933-.736-1.743-1.172-3.011-1.739-.335-.134-.67-.47-1.036-.602-.067-.536.435-.6 1.036-.536.5.069 1.034.234 1.268.301.601.235 1.168.47 1.768.701 1.3.534 2.672 1.003 4.037 1.269.793.149 2.557.578 3.744.669.666.049.852-.147 1.308-.219.633-1.168-1.1-2.27-1.769-2.603 0-.302.434-.402.869-.501 1.901.133 4.723.407 5.256 3.075 0 2.603-1.72 2.932-3.355 3.13-.36-.022-1.416-.068-2.815-.259-.684-.094-2.227-.553-2.304-.422.303.467 1.171 1.002 1.571 1.369C2.971-.068 2.27.033 1.868.567c-.365 2.002 1.804 1.435 2.604 2.502-.094.619-.64.953-1.162 1.212-.407.202-.779.385-1.04.456.166.868.967.969 1.734 1.168 1.103.834.402 3.138-.1 4.072-.868.433-2.432.668-2.734-.366.075 0 .032 0 0 0 .132-.936.367-1.802.032-2.838-.301-.165-.522-.115-.824-.248-.134-.1-.378-.42-.545-.485-.211-.966.007-1.747-.167-2.205-.103-.142-.217-.293-.334-.453-.536-.725-1.148-1.609-1.067-2.649C-1.337.033-.601.632 0 0" style="fill:#ba9959;fill-opacity:1;fill-rule:evenodd;stroke:none" transform="matrix(1.33333 0 0 -1.33333 277.5029 35.80664)" clip-path="url(#F)"/><path d="M0 0c.233.033.499.033.768.102.232.031.465.13.666.334 0 .832-.434 1.267-.666 1.9l-.036.034c-.2 1.002-.164 1.736.036 2.437.2.833.568 1.6.966 2.568.068 1.067-.033 1.602-.7 1.97-.099 0-.2 0-.266-.034-1.302-.133-1.537-.568-2.17-1.769-.201-.534-.436-1.201-.602-1.902-.365-1.403-.533-2.935 0-4.072C-1.669.834-1.034.268 0 0" style="fill:#ba9959;fill-opacity:1;fill-rule:evenodd;stroke:none" transform="matrix(1.33333 0 0 -1.33333 267.4482 39.63474)" clip-path="url(#G)"/><path d="M0 0c-.969-.066-1.668-.1-2.305.368-.098.101-.233.234-.366.366 0 .403.168.735.366 1.07.402.601 1.002 1.134 1.304 1.668.468 2.101.032 2.402-1.304 3.403l-.165.167c-.54.142-1.194.334-1.638.222-.149-.039-1.538-.041-1.755-.481-.077-.152-.188-.746-.265-.878-.198-.334 1.234-.124 1.756-.764.468-.501.634-.769.702-1.669-.935-1.369-1.435-1.835-.901-3.738-.368-.132-1.035-.3-1.771-.533-1.609-.537-2.043-.844-2.429-1.043-.233-.12-.621-.193-.755-.277-.28-.176-.431-.129-2.623-.215-.167 0-.298 0-.366-.102.034-.3.166-.632.366-.966.469-.834.67-.851 1.638-.985.132.035 1.3.064 1.467.129 1.064.121 1.934.641 2.702.754 1.101.168 2.304.135 2.87-.299.2-.968-.536-2.905-.965-3.839-.87-.867-1.337-.5-1.871.432l-.034.069c-.301 1.236-.468 1.436-1.368 1.202-.333-.935.068-2.37.165-3.538.368-1.101.436-1.801 1.203-2.302.234-.133.468-.266.802-.402 1.502.202 2.234.836 3.235 2.17l.034.066c.14.142.167.125.167.201 1.103 2.07 1.769 4.007 1.536 6.439.667.569 3.037.602 3.97.436.368-.235 1.091-.338 1.592-.738 1.566 0 2.849 2.373 1.613 4.042C4.173 1.103 2.235.435 0 0" style="fill:#ba9959;fill-opacity:1;fill-rule:evenodd;stroke:none" transform="matrix(1.33333 0 0 -1.33333 280.9756 56.32224)" clip-path="url(#H)"/><path d="M0 0c.268 1.537.668 3.604.067 4.707-.034 0-.034.035-.067.035-1.568.365-3.002-2.971-3.603-4.174-.5-2.535-.867-3.603 1.901-4.539C-.533-3.637-.433-2.033-.167-.864-.133-.598-.064-.3 0 0" style="fill:#ba9959;fill-opacity:1;fill-rule:evenodd;stroke:none" transform="matrix(1.33333 0 0 -1.33333 264.7764 48.16344)" clip-path="url(#I)"/><path d="m0 0-.013-.022c-.012-.019-.024-.04-.036-.06C-.116-.215-.35-.35-.384-.449c-.075-.662-.053-1.092.126-1.407.009-.02.02-.039.031-.052.008-.011.017-.022.024-.032.046-.062.095-.123.154-.176.056-.057.121-.11.192-.159.014-.012.027-.022.034-.028.004-.001.007-.005.01-.006 0-.001.004-.002.004-.002.265-.178.631-.332 1.126-.505 1.503.466 2.004 2 2.204 3.634C3.128 3.274.843 1.395 0 0" style="fill:#ba9959;fill-opacity:1;fill-rule:evenodd;stroke:none" transform="matrix(1.33333 0 0 -1.33333 134.3805 40.41594)" clip-path="url(#J)"/><path d="M0 0c-.162-1.035-.951-1.438-1.924-1.286-1.084.17-1.7.779-1.587 1.501l.477 3.043c.087.555-.553.378-.523.573.009.055.042.086.154.068.354-.055.684-.122.963-.165.278-.044.613-.082.967-.137.112-.017.134-.056.125-.112-.03-.194-.586.17-.673-.386L-2.496.057c-.09-.57.313-1.088.89-1.179.729-.114 1.303.28 1.432 1.106l.33 2.105c.093.598-.075.973-.379 1.128-.098.051-.202.074-.191.137.006.041.025.073.108.06.181-.028.45-.084.735-.129s.557-.073.738-.101c.084-.013.092-.05.086-.092-.011-.063-.115-.053-.226-.071-.335-.054-.611-.361-.704-.958Z" style="fill:#ba9959;fill-opacity:1;fill-rule:nonzero;stroke:none" transform="matrix(1.33333 0 0 -1.33333 70.8428 27.58261)" clip-path="url(#K)"/><path d="M0 0c-.227-.515-.115-.817.041-.986.146-.157.342-.167.294-.277-.018-.038-.045-.064-.122-.03-.219.097-.463.221-.728.337-.263.116-.52.214-.738.31-.077.035-.076.073-.059.112.048.109.187-.029.401-.031.23-.002.53.119.757.633l1.242 2.811c-.076.403-.219.566-.413.683-.098.058-.143.078-.112.148.023.052.057.06.109.037.219-.097.451-.215.688-.319l.721-.319L3.105-.803l.013-.006.841 1.905c.228.514.115.817-.041.986-.146.157-.342.167-.293.276.017.038.044.065.121.031.219-.097.464-.221.728-.337.263-.116.52-.215.739-.311.077-.034.076-.072.058-.111-.047-.109-.186.029-.401.032-.229.001-.529-.12-.757-.635L2.65-2.285c-.053-.122-.1-.21-.151-.187-.059.026-.069.123-.093.226L1.167 2.606l-.013.005Z" style="fill:#ba9959;fill-opacity:1;fill-rule:nonzero;stroke:none" transform="matrix(1.33333 0 0 -1.33333 73.633 28.94464)" clip-path="url(#L)"/><path d="M0 0c.327.458-.324.587-.21.747.033.045.076.058.168-.008C.25.53.516.323.744.159c.23-.164.512-.348.804-.557.091-.066.094-.111.06-.157-.114-.16-.446.415-.773-.042l-2.12-2.963c-.327-.457.324-.586.21-.746-.033-.046-.076-.057-.168.008-.292.208-.558.416-.786.579-.229.164-.512.35-.804.558-.091.065-.094.11-.061.156.115.16.447-.414.774.043z" style="fill:#ba9959;fill-opacity:1;fill-rule:nonzero;stroke:none" transform="matrix(1.33333 0 0 -1.33333 82.5316 28.92514)" clip-path="url(#M)"/><path d="M0 0c.142.056.288.146.4.252.491.465-.043.792.084.913.026.024.085.022.139-.033C.787.958.937.78 1.102.606c.159-.168.329-.327.493-.501.096-.101.134-.182.089-.226-.149-.14-.312.452-1.332.057l-3.745-1.447c-.086-.032-.166-.06-.195-.029-.028.031.004.109.04.192l1.816 4.055c.259.585-.144.755-.042.852.026.024.076.023.119-.023.247-.26.455-.5.676-.735.218-.23.451-.454.668-.684.087-.092.096-.142.06-.176-.106-.101-.312.381-.583.125-.071-.067-.119-.151-.15-.219L-2.271-.885z" style="fill:#ba9959;fill-opacity:1;fill-rule:nonzero;stroke:none" transform="matrix(1.33333 0 0 -1.33333 88.4469 35.37164)" clip-path="url(#N)"/><path d="M0 0c.483.288-.062.667.106.768.049.029.093.023.151-.074C.44.386.602.089.746-.152c.447-.749.878-1.457 1.31-2.166l-.973-.991c-.076-.078-.117-.12-.136-.129-.03-.019-.059-.012-.084.031-.033.053.074.109.325.579.302.565.315 1.105-.117 1.83l-.195.325-1.738-1.038.09-.15c.251-.423.75-.542 1.199-.308.124.065.165.065.201.006.021-.037.006-.079-.048-.111l-1.848-1.104c-.054-.032-.099-.025-.121.011-.036.06-.016.096.101.175.523.344.623.822.371 1.244l-.09.151-1.522-.908c-.278-.166-.358-.361-.127-.747.562-.943 1.535-1.049 2.245-.879.137.031.194.058.226.004.026-.043.006-.079-.03-.101-.036-.021-.116-.051-.189-.08l-1.499-.534c-.47.8-.944 1.606-1.445 2.445-.144.243-.329.525-.512.832-.058.097-.042.14.006.168.168.102.244-.558.726-.27z" style="fill:#ba9959;fill-opacity:1;fill-rule:nonzero;stroke:none" transform="matrix(1.33333 0 0 -1.33333 91.15 37.45384)" clip-path="url(#O)"/><path d="m0 0 .077-.263c.225-.762.702-.988 1.417-.777.742.219.944.674.776 1.248l-.125.425Zm-.317-1.039c.29.261.31.612.195 1.003L-1.74-.513c-.54-.159-.106-.662-.295-.716-.054-.017-.096 0-.127.108-.102.344-.184.672-.263.941-.08.271-.188.59-.29.934-.032.107-.006.144.048.16.188.056.097-.602.637-.442l3.493 1.03c.539.159.105.661.294.717.055.016.096-.001.128-.109.101-.343.183-.672.262-.941.1-.338.199-.623.331-1.068.339-1.155.008-1.919-.68-2.122-.567-.167-1.142.044-1.7 1.39L.084-.635c.213-.721.153-1.164-.275-1.577l-.83-.794c-.451-.433-.063-.804-.251-.858-.041-.013-.077-.016-.094.045-.072.243-.13.49-.202.732l-.215.729z" style="fill:#ba9959;fill-opacity:1;fill-rule:nonzero;stroke:none" transform="matrix(1.33333 0 0 -1.33333 92.9378 46.66724)" clip-path="url(#P)"/><path d="M0 0c.084.004.106-.022.108-.064C.112-.135.007-.141-.14-.176c-.883-.211-1.758-.605-1.709-1.631.035-.716.42-1.106.96-1.08C.53-2.818-.301-.042 1.441.042c.829.04 1.481-.633 1.523-1.503.032-.66-.233-1.025-.223-1.223.012-.245.203-.13.21-.255.002-.05-.017-.08-.123-.092l-1.321-.191c-.133-.02-.195-.03-.231-.032-.048-.002-.071.018-.073.053-.003.07.145.085.42.211.765.347 1.21.748 1.172 1.527-.024.499-.261.882-.795.856C.849-.663 1.626-3.483-.278-3.575c-.934-.046-1.688.707-1.74 1.766-.033.697.274 1.042.26 1.316-.013.274-.25.221-.255.34-.002.035.011.056.06.059z" style="fill:#ba9959;fill-opacity:1;fill-rule:nonzero;stroke:none" transform="matrix(1.33333 0 0 -1.33333 93.7425 52.30144)" clip-path="url(#Q)"/><path d="M0 0c.558-.075.366.561.561.535C.617.527.647.495.633.383.585.028.526-.305.489-.584.451-.862.42-1.198.373-1.554c-.016-.112-.054-.135-.109-.128-.196.027.156.59-.401.664l-3.61.486c-.558.074-.366-.562-.562-.535-.055.008-.087.04-.071.151.048.355.107.689.144.967.037.279.068.615.116.97.015.112.054.135.109.127.196-.025-.157-.588.401-.664Z" style="fill:#ba9959;fill-opacity:1;fill-rule:nonzero;stroke:none" transform="matrix(1.33333 0 0 -1.33333 96.6396 59.78584)" clip-path="url(#R)"/><path d="M0 0c.084 1.441-.92 1.854-.869 2.006.012.033.04.054.087.038.027-.009.129-.059.228-.114L.593 1.3c.093-.054.113-.083.101-.116-.01-.034-.04-.053-.078-.078C.585 1.08.529 1.047.498.953L-.506-2.033c-.031-.092-.007-.154.002-.194.016-.042.026-.075.016-.109-.012-.032-.045-.044-.152-.03l-1.294.19c-.113.016-.224.038-.251.047-.046.016-.057.05-.046.082.051.154 1.1-.124 1.904 1.074L-4.02.27c-.426.142-.589-.033-.699-.36-.027-.08-.06-.113-.127-.091-.053.019-.062.059-.038.132.128.379.256.715.362 1.028.105.314.206.658.334 1.038.024.074.055.1.109.083.066-.024.073-.071.046-.15-.11-.327-.086-.564.341-.708z" style="fill:#ba9959;fill-opacity:1;fill-rule:nonzero;stroke:none" transform="matrix(1.33333 0 0 -1.33333 95.8505 66.05144)" clip-path="url(#S)"/><path d="m0 0 .533-.979c.178-.326.409-.553.571-.654.399-.248.57.158.667.099.035-.023.042-.077-.01-.159-.119-.192-.22-.328-.369-.567-.116-.185-.222-.384-.334-.562-.026-.042-.065-.051-.101-.029-.119.075.217.254-.379 1.414L-.157 0l-1.439.896c-.477.297-.565-.361-.732-.257-.048.03-.063.072-.003.168.189.303.38.583.529.822.149.238.316.532.505.836.06.096.105.101.151.071.168-.103-.384-.472.093-.769L.271.94 2.619.812c.631-.038.685.393.81.315.042-.025.043-.076.002-.143-.182-.292-.366-.558-.54-.839-.175-.281-.334-.563-.509-.843-.056-.089-.1-.12-.142-.094-.125.079.253.364-.081.573-.101.064-.22.087-.401.101z" style="fill:#ba9959;fill-opacity:1;fill-rule:nonzero;stroke:none" transform="matrix(1.33333 0 0 -1.33333 89.5302 72.62164)" clip-path="url(#T)"/><path d="M0 0c-.07-.047-.104-.035-.127 0-.039.059.049.117.155.223.65.635 1.197 1.423.626 2.278-.397.596-.928.732-1.379.432-1.181-.789.96-2.742-.49-3.71-.689-.46-1.596-.22-2.079.506-.367.548-.328.998-.438 1.161-.136.205-.242.007-.312.113-.027.041-.025.076.058.141l1.035.842c.103.086.152.127.181.147.041.027.071.022.09-.007.039-.059-.08-.147-.252-.397-.476-.69-.651-1.263-.218-1.913.277-.416.677-.622 1.122-.325.959.641-1.159 2.66.425 3.718.779.52 1.813.263 2.402-.62.387-.58.301-1.034.454-1.262.152-.228.327-.06.393-.16.02-.029.02-.055-.021-.081Z" style="fill:#ba9959;fill-opacity:1;fill-rule:nonzero;stroke:none" transform="matrix(1.33333 0 0 -1.33333 40.3401 74.58394)" clip-path="url(#U)"/><path d="M0 0c-.533-.178-.08-.665-.267-.728-.053-.017-.095-.001-.131.105-.115.34-.209.664-.299.931-.09.266-.21.582-.325.921-.036.107-.011.145.042.163.187.063.12-.598.652-.418l1.533.515-.588 1.746-1.532-.515c-.533-.18-.081-.665-.267-.728-.053-.017-.095-.003-.131.104-.115.34-.209.665-.299.93-.09.267-.21.583-.325.923-.036.107-.011.145.042.162.187.063.12-.597.653-.419L2.21 4.854c.533.179.08.666.267.728.053.019.095.003.131-.103.115-.34.208-.666.299-.932.089-.267.21-.582.324-.922.037-.106.012-.145-.042-.162-.186-.063-.119.598-.652.418L.778 3.289l.587-1.746 1.76.592c.532.179.08.665.267.728.053.018.095.002.131-.104.115-.34.208-.664.299-.931.089-.266.21-.582.324-.922.037-.106.012-.144-.042-.162-.186-.063-.119.598-.652.418Z" style="fill:#ba9959;fill-opacity:1;fill-rule:nonzero;stroke:none" transform="matrix(1.33333 0 0 -1.33333 33.633 69.03834)" clip-path="url(#V)"/><path d="M0 0c-.562-.026-.259-.617-.455-.627-.057-.003-.093.023-.099.136-.016.358-.019.696-.033.977-.043.871-.09 1.7-.138 2.528L.6 3.43c.104.034.159.05.18.051.035.002.058-.018.06-.067.004-.063-.116-.062-.56-.358-.532-.357-.797-.827-.757-1.67l.019-.38 2.023.098-.008.176c-.024.492-.408.832-.913.836-.142 0-.178.02-.182.089-.002.043.032.072.096.075l2.148.106c.064.003.1-.023.103-.066.003-.07-.032-.093-.171-.107-.624-.059-.937-.433-.913-.924l.008-.176 1.771.086c.322.016.485.151.463.6-.054 1.096-.862 1.648-1.568 1.832-.135.035-.199.039-.202.102-.003.049.032.072.074.075.042.002.127-.008.205-.019l1.574-.232c.038-.928.077-1.863.125-2.839.013-.281.044-.617.061-.976.006-.112-.028-.141-.085-.144-.196-.01.049.607-.513.58Z" style="fill:#ba9959;fill-opacity:1;fill-rule:nonzero;stroke:none" transform="matrix(1.33333 0 0 -1.33333 31.236 59.79104)" clip-path="url(#W)"/><path d="M0 0c.55-.12.825.05.959.236.124.174.096.368.212.342.041-.009.072-.03.054-.112-.051-.234-.123-.498-.185-.78C.979-.596.934-.866.882-1.101.864-1.183.826-1.188.785-1.18c-.117.026-.009.19-.049.4-.044.225-.222.495-.772.615l-3.002.658c-.379-.154-.51-.327-.586-.541-.038-.106-.049-.155-.124-.139-.055.013-.069.045-.057.1.051.233.12.485.176.738l.168.771 3.63 1.78.003.014-2.032.446c-.55.12-.826-.05-.959-.236-.125-.175-.096-.368-.212-.343-.041.009-.073.03-.055.113.052.234.124.498.186.781.061.281.106.551.158.785.017.083.054.089.096.08.117-.026.009-.19.049-.4.044-.225.223-.495.773-.616l3.537-.774c.13-.03.224-.058.213-.113-.014-.061-.107-.091-.202-.134L-2.785.625l-.003-.014Z" style="fill:#ba9959;fill-opacity:1;fill-rule:nonzero;stroke:none" transform="matrix(1.33333 0 0 -1.33333 35.469 51.99674)" clip-path="url(#X)"/><path d="M0 0c.341.726.212 1.329-.054 1.788-.269.468-.655.642-.603.75.011.025.046.048.096.025.039-.019.124-.083.234-.165l1.221-.891C.648 1 .396.481.151-.04-.093-.562-.325-1.091-.57-1.612c-.025-.051-.068-.062-.093-.05-.032.015-.065.061-.12.141l-2.864 4.243-.18-.383c-.331-.706-.282-1.279.07-1.818.318-.484.418-.469.379-.551-.018-.039-.043-.042-.075-.028-.019.009-.064.045-.148.116l-1.065.888c.215.459.445.918.667 1.389.221.472.426.941.653 1.426.038.082.067.093.099.078.031-.016.08-.093.145-.186L-.245-.522z" style="fill:#ba9959;fill-opacity:1;fill-rule:nonzero;stroke:none" transform="matrix(1.33333 0 0 -1.33333 38.9612 44.70384)" clip-path="url(#Y)"/><path d="M0 0c-.439.353-.604-.291-.758-.168-.043.035-.053.079.018.168.224.278.446.533.622.753.176.219.376.491.6.77.071.088.116.088.16.054.153-.123-.439-.424 0-.776L1.903-.211l1.153 1.438-1.262 1.011c-.439.352-.603-.291-.756-.168-.044.035-.055.079.016.167.224.28.447.534.623.754.176.219.376.491.6.771.071.088.116.088.16.052.153-.123-.439-.423 0-.775L5.278.76c.439-.352.603.292.757.169.044-.035.054-.079-.016-.167-.225-.281-.448-.534-.623-.754-.176-.219-.376-.491-.6-.772-.071-.087-.116-.087-.159-.051-.155.123.437.422-.001.774L3.188 1.121 2.035-.316l1.448-1.162c.439-.352.604.291.757.168.044-.035.054-.079-.016-.166-.225-.28-.448-.535-.623-.754-.176-.22-.375-.492-.601-.771-.07-.088-.114-.088-.159-.053-.153.123.439.423 0 .776z" style="fill:#ba9959;fill-opacity:1;fill-rule:nonzero;stroke:none" transform="matrix(1.33333 0 0 -1.33333 36.6825 37.58144)" clip-path="url(#Z)"/><path d="M0 0c-.327.458-.659-.117-.774.043-.033.046-.031.091.061.157.292.208.574.393.803.556.709.508 1.381.996 2.051 1.484l1.067-.887c.084-.07.129-.107.141-.124.02-.029.015-.058-.025-.086-.052-.038-.115.064-.603.276-.588.254-1.128.223-1.815-.268L.598.93 1.775-.718l.144.103c.4.286.479.792.207 1.219-.076.12-.079.16-.022.202.035.024.078.011.115-.039L3.471-.984c.036-.051.034-.096 0-.121-.058-.041-.095-.025-.183.085-.387.494-.871.553-1.271.267l-.143-.102 1.031-1.441c.188-.264.389-.327.755-.065.893.638.919 1.616.691 2.309-.043.134-.075.189-.023.226.04.029.078.013.102-.022.025-.034.063-.111.096-.182l.657-1.449c-.759-.535-1.524-1.074-2.319-1.642-.228-.164-.495-.371-.787-.58-.092-.066-.135-.053-.168-.008-.114.16.537.289.21.747z" style="fill:#ba9959;fill-opacity:1;fill-rule:nonzero;stroke:none" transform="matrix(1.33333 0 0 -1.33333 43.1604 30.57104)" clip-path="url(#aa)"/><path d="M0 0c.199-.527.491-.665.721-.676.214-.009.36.121.402.01.015-.04.014-.078-.064-.107-.225-.084-.486-.168-.756-.27-.27-.102-.521-.212-.745-.296-.079-.03-.104-.002-.12.037-.042.113.155.111.309.259.165.16.293.457.095.982l-1.084 2.876c-.336.234-.553.249-.774.197-.11-.027-.156-.044-.183.028-.02.053-.001.083.052.103.223.084.471.163.715.254l.737.278 3.471-2.071.014.004-.734 1.948c-.2.526-.492.664-.721.674-.214.01-.36-.12-.402-.008-.015.039-.014.077.064.107.224.084.485.168.755.27.27.101.521.212.745.296.079.03.105.001.119-.038.043-.112-.153-.11-.307-.259-.165-.16-.294-.456-.095-.983L3.491.227c.047-.125.075-.219.023-.24-.059-.022-.135.039-.224.096L-.994 2.676l-.014-.005Z" style="fill:#ba9959;fill-opacity:1;fill-rule:nonzero;stroke:none" transform="matrix(1.33333 0 0 -1.33333 51.8388 29.99284)" clip-path="url(#ab)"/><path d="M0 0c0-.365-.295-.66-.659-.66-.364 0-.659.295-.659.66 0 .363.295.658.659.658C-.295.658 0 .363 0 0" style="fill:#ba9959;fill-opacity:1;fill-rule:nonzero;stroke:none" transform="matrix(1.33333 0 0 -1.33333 48.0914 82.03064)" clip-path="url(#ac)"/><path d="M0 0c0-.365-.296-.66-.66-.66-.363 0-.659.295-.659.66 0 .363.296.658.659.658C-.296.658 0 .363 0 0" style="fill:#ba9959;fill-opacity:1;fill-rule:nonzero;stroke:none" transform="matrix(1.33333 0 0 -1.33333 81.4925 82.03064)" clip-path="url(#ad)"/><path d="M0 0c-14.903 0-27.028-12.125-27.028-27.028 0-14.904 12.125-27.028 27.028-27.028 14.903 0 27.027 12.124 27.027 27.028C27.027-12.125 14.903 0 0 0m0-55.374c-3.826 0-7.538.749-11.034 2.228-3.375 1.427-6.407 3.47-9.01 6.074-2.602 2.603-4.647 5.634-6.074 9.009-1.479 3.497-2.229 7.209-2.229 11.035 0 3.827.75 7.539 2.229 11.034 1.427 3.376 3.472 6.407 6.074 9.01 2.603 2.603 5.635 4.647 9.01 6.075C-7.538.568-3.826 1.318 0 1.318c3.826 0 7.538-.75 11.033-2.227 3.376-1.428 6.407-3.472 9.011-6.075 2.602-2.603 4.646-5.634 6.074-9.01 1.479-3.495 2.229-7.207 2.229-11.034 0-3.826-.75-7.538-2.229-11.035-1.428-3.375-3.472-6.406-6.074-9.009-2.604-2.604-5.635-4.647-9.011-6.074C7.538-54.625 3.826-55.374 0-55.374" style="fill:#ba9959;fill-opacity:1;fill-rule:nonzero;stroke:none" transform="matrix(1.33333 0 0 -1.33333 63.9494 20.06181)" clip-path="url(#ae)"/><path d="M0 0c-.094-.28.03-.484.403-.632.354-.14.427-.165.394-.264C.783-.937.736-.966.663-.941c-.453.152-.911.312-1.34.449-.455.145-.918.293-1.371.444-.073.026-.093.076-.08.116.034.101.107.076.474-.025.386-.107.609-.019.703.262L.092 3.418c.052.153.022.2-.098.24l-.906.304c-.061.02-.085.058-.069.104.034.101.151.009.749-.109.896-.182 1.332.058 1.465.013.061-.02.076-.063.038-.176Z" style="fill:#ba9959;fill-opacity:1;fill-rule:nonzero;stroke:none" transform="matrix(1.33333 0 0 -1.33333 54.0666 87.24804)" clip-path="url(#af)"/><path d="M0 0c.335-.036.729.147.823.294.034.053.106.328.137.615.136 1.265-.226 1.657-.743 1.712-.399.043-.829-.151-.945-1.228C-.83.435-.454.049 0 0m.258 2.744C1.412 2.621 2.016 1.651 1.891.483 1.674-1.537-.96-2.033-1.275-1.999c-.035.004-.039.025-.036.061.009.083 1.49.299 2.066 1.984C.463-.1.164-.187-.214-.147c-1.14.122-1.558.902-1.483 1.601.09.839.773 1.417 1.955 1.29" style="fill:#ba9959;fill-opacity:1;fill-rule:nonzero;stroke:none" transform="matrix(1.33333 0 0 -1.33333 60.2672 86.60474)" clip-path="url(#ag)"/><path d="M0 0c-.49-.042-.799-.393-.756-.891.062-.714 1.149-.875 1.652-.992.153.196.262.403.221.879C1.055-.282.616.054 0 0m.132-4.632c.7.062 1.026.533.98 1.066-.032.378-.213.673-.986.881-.73.199-.792.257-.89.248-.126-.01-.445-.405-.392-1.007.064-.757.531-1.253 1.288-1.188M-.933-2.359c-.439.272-.638.615-.671.979C-1.669-.623-.992.042-.019.126c.806.069 1.452-.369 1.504-.978.036-.414-.156-.818-.471-1.078.548-.136.899-.614.951-1.21.069-.805-.674-1.519-1.822-1.618-.989-.086-1.691.446-1.753 1.168-.035.4.176.898.677 1.231" style="fill:#ba9959;fill-opacity:1;fill-rule:nonzero;stroke:none" transform="matrix(1.33333 0 0 -1.33333 66.7958 83.17124)" clip-path="url(#ah)"/><path d="M0 0c.517-.17.947-.441 1.117-.985C1.4-1.892.745-2.861-.234-3.168c-.953-.297-1.709-.047-1.858.43-.082.261.03.562.306.648.343.107.553-.049.709-.5.16-.467.47-.56.791-.461.544.17.814.696.597 1.395-.176.564-.609.863-1.06.869-.296.004-.548-.156-.579-.056-.047.148.262.082.543.363.19.191.223.533.108.902-.155.496-.578.674-1.123.504-.718-.225-.624-.784-.752-.824-.033-.011-.061.009-.072.044-.055.174.157 1.102 1.083 1.391.665.207 1.436.027 1.661-.697C.217.531.152.29 0 0" style="fill:#ba9959;fill-opacity:1;fill-rule:nonzero;stroke:none" transform="matrix(1.33333 0 0 -1.33333 74.245 83.99404)" clip-path="url(#ai)"/><path d="M0 0c.056-.036.106-.051.201-.048.199.005.32.121.37.144.02.009.075.042.075.053C.642.234.356.345.212.352.038.359-.237.201-.237.158-.237.105-.057.025 0 0" style="fill:#ba9959;fill-opacity:1;fill-rule:nonzero;stroke:none" transform="matrix(1.33333 0 0 -1.33333 57.4781 59.30144)" clip-path="url(#aj)"/><path d="M0 0c.081.415-.064.304-.933.334-.395 0-1.776.034-2.172-.021-.181-.024-.204-.172-.204-.262 0-.299-.075-.266 1.41-.267l.579.045C-.395-.121-.159-.23 0 0" style="fill:#ba9959;fill-opacity:1;fill-rule:nonzero;stroke:none" transform="matrix(1.33333 0 0 -1.33333 59.7294 63.95764)" clip-path="url(#ak)"/><path d="M0 0c-.482-.171-.439.063-.459.74-.02.442.039 1.823-.566 2.022-.516.248-1.002.265-1.113.101-.083-.122-.049-2.551-.049-2.551.011-.574-.243-.484-.501-.446-.486.128-.432.409-.424.863.008.455.008 2.091-.073 2.179-.072.079-1.005.133-1.16-.845-.148-.928-.252-1.548-.285-1.746-.021-.121-.046-.278-.137-.307-.173-.056-.517-.133-.581-.039-.098.351-.006.873.053 1.459.108.612.255 1.062.441 1.601.067.354 1.023.593 1.565.823.321.086.229.583.126.597-.169.041-.805-.052-1.199-.094-.282.003-.53-.217-.744.263-.109.243-.156.45.505.485l.858.071s.612.019.652.123c.002.158.031.455.177.695.046.075.297.041.449.027.326-.093.202-.107.261-.513.018-.186-.048-.236 1.028-.209.758.024 1.318.112 1.292-.194.007-.149.01-.459-.066-.537-.11-.114-.324-.065-.681-.085-.529-.004-1.39-.033-1.516-.049-.081-.038-.071-.195-.034-.356.049-.115-.029-.137.471-.25 1.658-.485 1.64-.385 1.9-1.46C.348 1.461.328.959.338.684.326.373.449.158 0 0m.216-4.064c-.324-1.207-.604-1.067-.834-2.403.002-.51.27-1.634.384-2.046.075-.39.453-1.161.263-1.218-.189-.058-.612.042-.759.155-.22.169-.4.952-.494 1.224-.175.764-.468 2.095.087 3.173.159.345.418.801.571 1.675.005 1.187-.065 1.33-.237 1.879-.13.324-.304.574-.009.59.881 0 .77-.265 1.022-.854.156-.695.175-.967.006-2.175m-2.281-4.463c.177-.623.584-1.166.319-1.235-.208-.05-.579-.025-.7.107-.252.275-.48.779-.637 1.594-.117.873-.198 1.418-.11 2.215.272 1.184.872 1.552.968 2.538.059.634-.011.827-.106 1.101-.163.473-.719 1.199-.076 1.199.395 0 .402-.054.559-.175.249-.192.527-1.039.571-1.528.061-.727-.275-1.455-.521-2.088-.278-.715-.558-1.117-.556-1.816.041-.487.088-1.114.289-1.912M-3.5-9.828c-.24-.056-.337-.055-.651 0-.218.037-.327.29-.51.86-.087.311-.166.613-.314 1.342-.085.816-.188 1.476-.02 1.897.081.304.26.748.438 1.098.144.344.275.596.435 1.204.106.585.104.641-.002 1.142-.033.199-.173.456-.273.726-.163.355-.263.53.142.58.588.042.543-.022.81-.414.28-.644.282-.888.296-1.096.061-.487.039-1.037-.424-2.06-.448-.883-.629-1.245-.569-2.087.07-.936.279-1.942.405-2.291.096-.265.425-.856.237-.901m-2.054 4.341c-.157-.154-.722-.228-.843-.408-.122-.179-.082-1.486.002-1.574.099-.114.368-.041.771-.003.305.007.412-.944.179-.972-.241-.045-1.109-.138-1.568-.187-.492-.059-.774-.096-1.244-.093-.438.004-.431.234-.474.565-.001.376-.042.509.319.463.353-.013.594-.058.907.214.234.189.098.681.131 1.05-.012.332.079.635-.392.516-.661-.154-.699-.26-.696.865.002.402-.008.784.017 1.053.038.54-.081.816.6.957.293.063.136-.828.133-1.243-.003-.397-.054-.816.168-.816.559-.04.235 1.214.275 2.268.023.699-.123 1.016.428 1.117.488.069.375-.111.399-.688.006-.548-.025-2.441.211-2.423.465.034.378 1.633.347 1.913-.012.43-.087.615.349.651.337.016.345.041.41-.342.063-.401.072-.777.073-1.08-.032-.391-.05-.595-.129-1.015-.062-.463-.215-.635-.373-.788m-3.774 17.11h-3.955c0 .547.443.989.989.989h2.472c.273 0 .494-.221.494-.494zM-9.827-.443c-.27-.141-1.285 1.247-1.994 2.151-.247.313-1.149 1.089-1.951 1.134-1.206.068-2.867-2.068-3.284-2.8-.209-.324-.448-.649-.804-.485-.327.208-.317.201-.129.745.343.81 1.838 2.45 2.478 2.908.682.636.848.719 1.066 1.476.108 1.379.069 1.706-.331 1.776-.397.044-2.181.302-2.253-.804-.062-.937-.058-1.351-.062-1.73.003-.56-.044-.471-.598-.473-.363 0-.174 1.883-.174 3.152.195.774.664.63 1.427.691.396-.042.916.003 1.195.003.639 0 .788.326.828.838.041.532.097.552.545.624.4.064.361-.244.443-.648.143-.625-.068-.673.832-.717.77 0 1.356-.016 1.687-.044.748-.073 1.156.001 1.206-1.149.025-.966.272-1.878-.024-2.235-.125-.151-.468-.33-.716-.285-.312.169.343 2.303-.465 2.667-.481.216-1.82.217-2.209.034-.37-.175-.219-.938-.255-1.483 0-.431-.002-.885.88-1.46.889-.656 1.697-1.484 2.513-2.458.487-.515.917-1.189.149-1.428m.131-3.367c-.278-.056-1.869-.099-1.9-.091-.149.015-.17-.006-.164.21-.007.31.017.341.551.332.52-.013.928-.054.928.257 0 .236-.062.284-.907.253-.487-.014-.465-.002-.486.098-.059.298-.13.471.294.493.591.054 1.082.006 1.113.149.057.255-.004.345-.469.314-.985-.065-1.035-.142-1.046.172 0 .303-.126.388.655.434.797.014 1.439.112 1.494-.248.137-.423.144-.981.166-1.803.016-.547-.015-.532-.229-.57m-5.358 2.318c-.067.036.166.381.302.408.165-.025.619-.295.76-.344.042-.014.182-.076.36-.17.087.04.153.073.189.094.146.09.829.472 1.014.463.054-.036.313-.431.135-.537-.227-.147-.48-.332-.649-.4.201-.11.361-.196.399-.216.284-.141.343-.203.312-.492-.033-.056-.156-.156-.221-.184-.15-.066-.276-.153-.434-.225.123-.057.248-.118.366-.178.526-.302.499-.23.34-.501-.201-.282-.487-.131-.618-.076-.066.032-.48.196-.853.401-.233-.134-.524-.287-.795-.405-.366-.167-.427-.181-.555 0-.221.322-.086.307.289.532.037.019.221.107.355.201-.163.085-.348.153-.544.277-.051.027-.201.113-.214.207 0 .139-.057.284.358.507.133.067.242.121.366.179-.268.135-.568.293-.662.459m-1.974-.642c0-.179.3-.153.891-.134.518 0 .486.113.507-.313.001-.161.017-.199-.333-.211-1.195-.06-1.09-.031-1.087-.312.01-.238.203-.185.926-.147.469.02.502.091.538-.226.022-.197-.011-.332-.011-.332-.342 0-1.654-.134-1.978-.097-.348.046-.346.017-.326.716.045.629.07 1.225.208 1.754.151.319.171.255 1.5.312.704-.007.629.044.683-.427.014-.172.047-.206-1.095-.273-.519.011-.435.053-.423-.31m7.51-5.105c-.046-1.159-.073-1.05-.876-1.05-.701 0-2.446-.002-2.563-.012 0-.163-.044-.521-.023-.848.026-.453.284-.57-1.567-.759-.437-.039-3.233.07-3.416.4-.204.34-.546.889-.283 1.358.394-.312.77-.554 1.619-.86.679-.119 1.781-.22 2.348-.053.4.165.387.282.365.713-1.305.08-1.999.115-2.432.14-.716.086-.678.077-.689.435.036.287.107.358.572.33.26-.038.81-.078 1.56-.078h.989v.575s-1.006-.039-1.377-.019c-1.184.051-.993.219-1.053.758.101.965.099.835.972.894.749.014 2.87.052 3.419.034.858-.08.745-.141.73-.905-.087-.434.074-.585-.774-.711-.153-.001-.966-.062-.966-.062v-.564h1.911s.679.011.679.575c0 .563.079 1.416.079 1.416s-.01.603-.595.603c-.584 0-3.781.048-5.09.027-1.015-.008-1.039-.172-1.124-.523-.094-.392-.168-2.007-.469-1.941-.763.19-.591.272-.581.72.032.603.135 1.224.244 1.818.164.423.233.652 2.733.636 1.152 0 4.53.004 4.53.004.762-.048 1.024-.04 1.128-.78.086-1.083.041-1.427 0-2.271m.8 10.85c0 .887.09 1.038.264 1.301.191.096.443-.037.528-.146.123-.311-.087-1.874-.113-2.57-.046-.691.177-1.391-.098-1.507-.293-.097-.494-.009-.517.19-.101.836-.064 2.732-.064 2.732m.297 2.959c.109.682.057 1.458.117 1.666.065.069.242.119.454.071.252-.179.332-2.381-.227-2.82-.166-.002-.367-.022-.432.096-.082.152.006.494.088.987m.972-1.47c.036.463.172 2.056.117 2.462.012.264-.028.638.058.927.039.134.174.153.403.174.371.071.291-1.226.291-1.226-.035-1.123-.335-3.33-.335-3.909-.112-.949.338-3.477.088-3.714-.081-.04-.396-.09-.476.068-.238.684-.253 1.732-.295 2.627-.062 1.01.112 2.127.149 2.591m1.312-.585c.348-.141.367-1.229.367-1.229.008-.145.033-1.093.033-1.418.009-.317.025-.551-.026-.687-.111-.087-.237-.109-.434-.069-.158.093-.24.935-.24 1.215s-.008.929-.091 1.559c-.081.63-.013.557.391.629m-.174 3.507c.014.287-.003.358.235.375.38.01.375-.128.406-.32-.005-.303-.014-.919-.019-1.5-.003-.339.002-1.06-.265-1.162-.3-.04-.478-.07-.459.267-.024.196.082.498.133.806.051.31.006 1.167-.031 1.534m.972-1.166c.146 1.377.18 1.236.944 1.521.912.166 1.408.309 1.882.295.475-.014 1.536-.041 2.514-.414.421-.151.25-.291.271-1.871-.066-.595-.116-.498-.725-.556-.5.015-.768-.03-1.418.151-.211.26-.471 1.679-.949 1.505-.2-.15-.001-.171-.344-.858-.071-.108-.19-.445-.317-.588-.489-.225-.911-.159-1.466-.18-.518.02-.385.27-.392.995m8.207.306c0-.377.158-.716.411-.957l.009-.01 4.465-4.466h.001c.239-.239.388-.57.388-.934v5.586c0 .262-.152.627-.336.812l-9.368 9.368c-.186.185-.551.337-.813.337h-.69v-.001c-.182 0-.33-.147-.33-.33v-4.449c0-.272-.22-.493-.493-.495h-.496v4.285c0 .546-.442.989-.989.989h-7.251c-.546 0-.989-.443-.989-.989v-4.285h-.495c-.273.002-.494.223-.494.495v4.449c0 .183-.147.33-.33.33v.001h-.689c-.263 0-.628-.152-.813-.337l-9.367-9.368c-.185-.185-.337-.55-.337-.812V.795c0 .364.149.695.388.934l4.465 4.466.009.01c.254.241.412.58.412.957v-.931c0-.365-.149-.695-.388-.933l-.001-.001-4.465-4.465-.009-.012c-.252-.24-.411-.58-.411-.956v-5.055c0 .365.149.695.388.933v.001l4.465 4.466.009.011c.254.24.412.579.412.956v-.93c0-.365-.149-.696-.388-.934l-.001-.001-4.465-4.466-.009-.011c-.252-.24-.411-.579-.411-.956v-.744c0-.262.152-.627.337-.813l1.308-1.307 3.208 3.209.009.01c.254.241.412.58.412.956v-.93c0-.364-.149-.696-.388-.934l-.001-.001-2.775-2.775 7.515-7.516 2.034 3.656c.174.324.515.543.909.543H-12.785c-.401 0-.747-.227-.918-.56h-.001l-2.224-4.002c.107-.032.213-.052.307-.052h3.856l.737 4.067c.054.311.327.547.654.547h.675c-.329 0-.603-.239-.656-.553l-.736-4.061h4.185l-.736 4.061c-.052.314-.326.553-.655.553h.674c.328 0 .6-.236.655-.547l.737-4.067h3.856c.094 0 .2.02.307.052l-2.225 4.002c-.171.333-.519.56-.918.56H-4.426c.394 0 .735-.219.908-.543l2.034-3.656 7.515 7.516-2.775 2.775v.001c-.24.238-.388.57-.388.934v.93c0-.376.158-.715.411-.956l.009-.01 3.209-3.209 1.309 1.307c.184.186.336.551.336.813v.744c0 .377-.159.716-.413.956l-.008.011L3.256-.689v.001c-.24.238-.388.569-.388.934v.93c0-.377.158-.716.411-.956l.009-.011 4.465-4.466.001-.001c.239-.238.388-.568.388-.933v5.055c0 .376-.159.716-.413.956l-.008.012-4.465 4.465v.001c-.24.238-.388.568-.388.933v.386z" style="fill:#ba9959;fill-opacity:1;fill-rule:nonzero;stroke:none" transform="matrix(1.33333 0 0 -1.33333 75.9469 55.73364)" clip-path="url(#al)"/><path d="m0 0 .401.022C.61.071.586.379.467.828c-.132.27-.51.252-.875.244-.147-.009-.254-.032-.207-.261C-.468-.08-.43.058 0 0" style="fill:#ba9959;fill-opacity:1;fill-rule:nonzero;stroke:none" transform="matrix(1.33333 0 0 -1.33333 74.6278 46.78064)" clip-path="url(#am)"/><path d="m0 0 .288.022c.583.04.55.357.62.845.034.195-.293.151-.611.094-.302-.06-.312-.046-.37-.268C-.129.481-.209.062 0 0" style="fill:#ba9959;fill-opacity:1;fill-rule:nonzero;stroke:none" transform="matrix(1.33333 0 0 -1.33333 69.9833 46.85354)" clip-path="url(#an)"/></g></svg>