<svg width="192.03149" height="180.57574" viewBox="0 0 192.03149 180.57575" xmlns="http://www.w3.org/2000/svg"><defs><clipPath clipPathUnits="userSpaceOnUse" id="a"><path d="M0 612.288h858.897V0H0Z" transform="translate(-210.08604 -178.7373)"/></clipPath><clipPath clipPathUnits="userSpaceOnUse" id="b"><path d="M0 612.288h858.897V0H0Z" transform="translate(-194.18858 -182.2354)"/></clipPath><clipPath clipPathUnits="userSpaceOnUse" id="c"><path d="M0 612.288h858.897V0H0Z" transform="translate(-173.09378 -177.3037)"/></clipPath><clipPath clipPathUnits="userSpaceOnUse" id="d"><path d="M0 612.288h858.897V0H0Z" transform="translate(-92.703232 -178.7373)"/></clipPath><clipPath clipPathUnits="userSpaceOnUse" id="e"><path d="M0 612.288h858.897V0H0Z" transform="translate(-100.62698 -182.2354)"/></clipPath><clipPath clipPathUnits="userSpaceOnUse" id="f"><path d="M0 612.288h858.897V0H0Z" transform="translate(-109.93171 -182.2354)"/></clipPath><clipPath clipPathUnits="userSpaceOnUse" id="g"><path d="M0 612.288h858.897V0H0Z" transform="translate(-118.65053 -177.3037)"/></clipPath><clipPath clipPathUnits="userSpaceOnUse" id="h"><path d="M0 612.288h858.897V0H0Z" transform="translate(-128.55091 -176.083)"/></clipPath><clipPath clipPathUnits="userSpaceOnUse" id="i"><path d="M0 612.288h858.897V0H0Z" transform="translate(-169.39951 -177.8916)"/></clipPath><clipPath clipPathUnits="userSpaceOnUse" id="j"><path d="M0 612.288h858.897V0H0Z" transform="translate(-181.13873 -182.2354)"/></clipPath><clipPath clipPathUnits="userSpaceOnUse" id="k"><path d="M0 612.288h858.897V0H0Z" transform="translate(-190.26368 -181.2021)"/></clipPath><clipPath clipPathUnits="userSpaceOnUse" id="l"><path d="M0 612.288h858.897V0H0Z" transform="translate(-203.97474 -179.6377)"/></clipPath><clipPath clipPathUnits="userSpaceOnUse" id="m"><path d="M0 612.288h858.897V0H0Z" transform="translate(-218.00401 -182.2354)"/></clipPath><clipPath clipPathUnits="userSpaceOnUse" id="n"><path d="M0 612.288h858.897V0H0Z" transform="translate(-224.22271 -182.68851)"/></clipPath><clipPath clipPathUnits="userSpaceOnUse" id="o"><path d="M0 612.288h858.897V0H0Z" transform="translate(-233.25594 -179.61231)"/></clipPath><clipPath clipPathUnits="userSpaceOnUse" id="p"><path d="M0 612.288h858.897V0H0Z" transform="translate(-133.94543 -182.2354)"/></clipPath><clipPath clipPathUnits="userSpaceOnUse" id="q"><path d="M0 612.288h858.897V0H0Z" transform="translate(-143.25203 -182.2354)"/></clipPath><clipPath clipPathUnits="userSpaceOnUse" id="r"><path d="M0 612.288h858.897V0H0Z" transform="translate(-151.96883 -177.3037)"/></clipPath><clipPath clipPathUnits="userSpaceOnUse" id="s"><path d="M0 612.288h858.897V0H0Z" transform="translate(-104.47861 -202.08691)"/></clipPath><clipPath clipPathUnits="userSpaceOnUse" id="t"><path d="M0 612.288h858.897V0H0Z" transform="translate(-98.295007 -204.5791)"/></clipPath><clipPath clipPathUnits="userSpaceOnUse" id="u"><path d="M0 612.288h858.897V0H0Z" transform="translate(-113.82428 -210.98341)"/></clipPath><clipPath clipPathUnits="userSpaceOnUse" id="v"><path d="M0 612.288h858.897V0H0Z" transform="translate(-115.25588 -205.5928)"/></clipPath><clipPath clipPathUnits="userSpaceOnUse" id="w"><path d="M0 612.288h858.897V0H0Z" transform="translate(-96.449332 -220.66891)"/></clipPath><clipPath clipPathUnits="userSpaceOnUse" id="x"><path d="M0 612.288h858.897V0H0Z" transform="translate(-103.38578 -219.16111)"/></clipPath><clipPath clipPathUnits="userSpaceOnUse" id="y"><path d="M0 612.288h858.897V0H0Z" transform="translate(-141.90338 -207.70411)"/></clipPath><clipPath clipPathUnits="userSpaceOnUse" id="z"><path d="M0 612.288h858.897V0H0Z" transform="translate(-144.42781 -216.44821)"/></clipPath><clipPath clipPathUnits="userSpaceOnUse" id="A"><path d="M0 612.288h858.897V0H0Z" transform="translate(-156.30091 -225.83301)"/></clipPath><clipPath clipPathUnits="userSpaceOnUse" id="B"><path d="M0 612.288h858.897V0H0Z" transform="translate(-152.34383 -217.57711)"/></clipPath><clipPath clipPathUnits="userSpaceOnUse" id="C"><path d="M0 612.288h858.897V0H0Z" transform="translate(-194.77741 -200.41111)"/></clipPath><clipPath clipPathUnits="userSpaceOnUse" id="D"><path d="M0 612.288h858.897V0H0Z" transform="translate(-187.99808 -214.79001)"/></clipPath><clipPath clipPathUnits="userSpaceOnUse" id="E"><path d="M0 612.288h858.897V0H0Z" transform="translate(-220.55874 -218.93461)"/></clipPath><clipPath clipPathUnits="userSpaceOnUse" id="F"><path d="M0 612.288h858.897V0H0Z" transform="translate(-225.76284 -221.9521)"/></clipPath><clipPath clipPathUnits="userSpaceOnUse" id="G"><path d="M0 612.288h858.897V0H0Z" transform="translate(-217.24621 -218.70801)"/></clipPath><clipPath clipPathUnits="userSpaceOnUse" id="H"><path d="M0 612.288h858.897V0H0Z" transform="translate(-228.70524 -204.57321)"/></clipPath><clipPath clipPathUnits="userSpaceOnUse" id="I"><path d="M0 612.288h858.897V0H0Z" transform="translate(-214.98249 -211.4854)"/></clipPath><clipPath clipPathUnits="userSpaceOnUse" id="J"><path d="M0 612.288h858.897V0H0Z" transform="translate(-104.53328 -218.0479)"/></clipPath><clipPath clipPathUnits="userSpaceOnUse" id="am"><path d="M0 612.288h858.897V0H0Z" transform="translate(-171.27061 -305.79791)"/></clipPath><clipPath clipPathUnits="userSpaceOnUse" id="K"><path d="M0 612.288h858.897V0H0Z" transform="translate(-173.92883 -304.50101)"/></clipPath><clipPath clipPathUnits="userSpaceOnUse" id="L"><path d="M0 612.288h858.897V0H0Z" transform="translate(-182.40338 -304.51951)"/></clipPath><clipPath clipPathUnits="userSpaceOnUse" id="M"><path d="M0 612.288h858.897V0H0Z" transform="translate(-188.03911 -298.37791)"/></clipPath><clipPath clipPathUnits="userSpaceOnUse" id="N"><path d="M0 612.288h858.897V0H0Z" transform="translate(-190.61341 -296.39551)"/></clipPath><clipPath clipPathUnits="userSpaceOnUse" id="O"><path d="M0 612.288h858.897V0H0Z" transform="translate(-192.31553 -287.62011)"/></clipPath><clipPath clipPathUnits="userSpaceOnUse" id="P"><path d="M0 612.288h858.897V0H0Z" transform="translate(-193.08211 -282.25291)"/></clipPath><clipPath clipPathUnits="userSpaceOnUse" id="Q"><path d="M0 612.288h858.897V0H0Z" transform="translate(-195.84188 -275.12401)"/></clipPath><clipPath clipPathUnits="userSpaceOnUse" id="R"><path d="M0 612.288h858.897V0H0Z" transform="translate(-195.09091 -269.1553)"/></clipPath><clipPath clipPathUnits="userSpaceOnUse" id="S"><path d="M0 612.288h858.897V0H0Z" transform="translate(-189.07043 -262.89751)"/></clipPath><clipPath clipPathUnits="userSpaceOnUse" id="T"><path d="M0 612.288h858.897V0H0Z" transform="translate(-142.21591 -261.0283)"/></clipPath><clipPath clipPathUnits="userSpaceOnUse" id="U"><path d="M0 612.288h858.897V0H0Z" transform="translate(-135.82823 -266.31151)"/></clipPath><clipPath clipPathUnits="userSpaceOnUse" id="V"><path d="M0 612.288h858.897V0H0Z" transform="translate(-133.54501 -275.12011)"/></clipPath><clipPath clipPathUnits="userSpaceOnUse" id="W"><path d="M0 612.288h858.897V0H0Z" transform="translate(-137.57723 -282.54391)"/></clipPath><clipPath clipPathUnits="userSpaceOnUse" id="X"><path d="M0 612.288h858.897V0H0Z" transform="translate(-140.90341 -289.4893)"/></clipPath><clipPath clipPathUnits="userSpaceOnUse" id="Y"><path d="M0 612.288h858.897V0H0Z" transform="translate(-138.73253 -296.2744)"/></clipPath><clipPath clipPathUnits="userSpaceOnUse" id="Z"><path d="M0 612.288h858.897V0H0Z" transform="translate(-144.90338 -302.95121)"/></clipPath><clipPath clipPathUnits="userSpaceOnUse" id="aa"><path d="M0 612.288h858.897V0H0Z" transform="translate(-153.16898 -303.50201)"/></clipPath><clipPath clipPathUnits="userSpaceOnUse" id="ab"><path d="M0 612.288h858.897V0H0Z" transform="translate(-149.59973 -253.93461)"/></clipPath><clipPath clipPathUnits="userSpaceOnUse" id="ac"><path d="M0 612.288h858.897V0H0Z" transform="translate(-181.41413 -253.93461)"/></clipPath><clipPath clipPathUnits="userSpaceOnUse" id="ad"><path d="M0 612.288h858.897V0H0Z" transform="translate(-155.29111 -248.96581)"/></clipPath><clipPath clipPathUnits="userSpaceOnUse" id="ae"><path d="M0 612.288h858.897V0H0Z" transform="translate(-161.19728 -249.5791)"/></clipPath><clipPath clipPathUnits="userSpaceOnUse" id="af"><path d="M0 612.288h858.897V0H0Z" transform="translate(-167.41613 -252.8506)"/></clipPath><clipPath clipPathUnits="userSpaceOnUse" id="ag"><path d="M0 612.288h858.897V0H0Z" transform="translate(-174.51083 -252.06541)"/></clipPath><clipPath clipPathUnits="userSpaceOnUse" id="ah"><path d="M0 612.288h858.897V0H0Z" transform="translate(-158.54108 -275.58501)"/></clipPath><clipPath clipPathUnits="userSpaceOnUse" id="ai"><path d="M0 612.288h858.897V0H0Z" transform="translate(-160.68458 -271.1494)"/></clipPath><clipPath clipPathUnits="userSpaceOnUse" id="aj"><path d="M0 612.288h858.897V0H0Z" transform="translate(-176.13293 -278.98341)"/></clipPath><clipPath clipPathUnits="userSpaceOnUse" id="ak"><path d="M0 612.288h858.897V0H0Z" transform="translate(-174.87608 -287.51071)"/></clipPath><clipPath clipPathUnits="userSpaceOnUse" id="al"><path d="M0 612.288h858.897V0H0Z" transform="translate(-170.45123 -287.4424)"/></clipPath></defs><g style="display:inline"><path d="M0 0c0 .133.041.166.109.166.114 0 .114-.166.157-.4.265-1.412.972-2.633 2.439-2.633.969 0 1.779.388 1.779 1.244C4.484.621.041-.48.041 2.277c0 1.311 1.111 2.287 2.489 2.287 1.042 0 1.601-.443 1.913-.443.385 0 .222.313.42.313.078 0 .123-.036.133-.204l.202-2.099c.025-.209.034-.313.034-.367 0-.073-.034-.112-.089-.112-.114 0-.123.202-.301.647-.488 1.23-1.172 1.853-2.324 1.853-.664 0-1.411-.384-1.411-1.132 0-1.821 4.514-.721 4.514-3.733 0-1.475-1.248-2.609-2.926-2.609-1.096 0-1.619.509-2.052.509-.434 0-.365-.375-.557-.375-.056 0-.086.02-.086.098Z" style="fill:#231916;fill-opacity:1;fill-rule:nonzero;stroke:none" transform="matrix(1.33333 0 0 -1.33333 156.5101 176.02561)" clip-path="url(#a)"/><path d="M0 0c0 .891-.954.455-.954.766 0 .089.046.146.222.146.567 0 1.1-.021 1.545-.021 1.375 0 2.688.009 3.999.021l.556-2.123c.041-.168.065-.256.065-.291 0-.055-.03-.09-.109-.09-.1 0-.092.194-.522.912C4.28.189 3.556.453 2.224.453h-.6V-2.41h.277c.78 0 1.344.433 1.389 1.236.012.223.042.276.155.276.068 0 .111-.053.111-.161v-3.396c0-.102-.043-.156-.111-.156-.113 0-.143.054-.155.279-.045.986-.609 1.367-1.389 1.367h-.277v-2.658c0-.51.366-.582.909-.582 1.476 0 2.667 1.039 3.013 2.139.066.212.078.31.175.31.079 0 .113-.055.113-.121s-.022-.199-.044-.324L5.3-6.666c-1.467.012-2.942.023-4.487.023-.445 0-.978-.023-1.545-.023-.176 0-.222.057-.222.143 0 .312.954-.12.954.769z" style="fill:#231916;fill-opacity:1;fill-rule:nonzero;stroke:none" transform="matrix(1.33333 0 0 -1.33333 135.3135 171.36151)" clip-path="url(#b)"/><path d="M0 0c0-.891.357-1.254.688-1.4.314-.131.601-.024.601-.211 0-.067-.021-.123-.154-.123-.377 0-1.197.023-1.656.023-.454 0-.885-.023-1.264-.023-.133 0-.154.056-.154.123 0 .187.287.08.597.211.336.146.691.509.691 1.4v4.854c-.367.533-.681.675-1.034.72-.176.026-.254.026-.254.145 0 .088.043.125.13.125.38 0 .791-.022 1.204-.022H.639L4.13 1.451l.146-.18v2.834c0 .891-.354 1.26-.686 1.405-.315.135-.604.019-.604.209 0 .068.024.125.158.125.376 0 1.168-.022 1.626-.022.455 0 .888.022 1.265.022.137 0 .156-.057.156-.125 0-.19-.287-.074-.6-.209-.331-.145-.689-.514-.689-1.405v-5.716c0-.211-.011-.368-.098-.368-.101 0-.179.135-.28.268L.061 3.967 0 4.053Z" style="fill:#231916;fill-opacity:1;fill-rule:nonzero;stroke:none" transform="matrix(1.33333 0 0 -1.33333 107.1871 177.93711)" clip-path="url(#c)"/><path d="M0 0c0 .133.047.166.113.166.11 0 .11-.166.154-.4.268-1.412.973-2.633 2.445-2.633.966 0 1.778.388 1.778 1.244C4.49.621.047-.48.047 2.277c0 1.311 1.109 2.287 2.486 2.287 1.045 0 1.602-.443 1.914-.443.388 0 .221.313.422.313.076 0 .12-.036.131-.204l.201-2.099c.022-.209.034-.313.034-.367 0-.073-.034-.112-.089-.112-.111 0-.125.202-.298.647-.491 1.23-1.172 1.853-2.325 1.853-.668 0-1.41-.384-1.41-1.132 0-1.821 4.51-.721 4.51-3.733 0-1.475-1.244-2.609-2.922-2.609-1.098 0-1.62.509-2.053.509-.435 0-.369-.375-.559-.375-.056 0-.089.02-.089.098Z" style="fill:#231916;fill-opacity:1;fill-rule:nonzero;stroke:none" transform="matrix(1.33333 0 0 -1.33333 -.0003 176.02561)" clip-path="url(#d)"/><path d="M0 0c0 .891-.956.455-.956.766 0 .089.042.146.222.146C-.169.912.362.891.807.891c.447 0 .978.021 1.544.021.178 0 .221-.057.221-.146 0-.311-.952.125-.952-.766v-2.41h2.911V0c0 .891-.955.455-.955.766 0 .089.045.146.219.146.567 0 1.103-.021 1.545-.021.445 0 .98.021 1.545.021.177 0 .222-.057.222-.146 0-.311-.955.125-.955-.766v-5.754c0-.889.955-.457.955-.769 0-.086-.045-.143-.222-.143-.565 0-1.1.023-1.545.023-.442 0-.978-.023-1.545-.023-.174 0-.219.057-.219.143 0 .312.955-.12.955.769v2.789H1.62v-2.789c0-.889.952-.457.952-.769 0-.086-.043-.143-.221-.143-.566 0-1.097.023-1.544.023-.445 0-.976-.023-1.541-.023-.18 0-.222.057-.222.143 0 .312.956-.12.956.769z" style="fill:#231916;fill-opacity:1;fill-rule:nonzero;stroke:none" transform="matrix(1.33333 0 0 -1.33333 10.5647 171.36151)" clip-path="url(#e)"/><path d="M0 0c0 .891-.955.455-.955.766 0 .089.043.146.224.146C-.164.912.367.891.812.891c1.376 0 2.69.009 3.999.021l.554-2.123c.043-.168.067-.256.067-.291 0-.055-.032-.09-.11-.09-.101 0-.09.194-.521.912C4.277.189 3.557.453 2.221.453h-.6V-2.41h.281c.774 0 1.343.433 1.387 1.236.012.223.046.276.156.276.07 0 .112-.053.112-.161v-3.396c0-.102-.042-.156-.112-.156-.11 0-.144.054-.156.279-.044.986-.613 1.367-1.387 1.367h-.281v-2.658c0-.51.372-.582.912-.582 1.475 0 2.666 1.039 3.016 2.139.062.212.07.31.174.31.073 0 .111-.055.111-.121s-.023-.199-.045-.324l-.49-2.465c-1.465.012-2.942.023-4.487.023-.445 0-.976-.023-1.543-.023-.181 0-.224.057-.224.143 0 .312.955-.12.955.769z" style="fill:#231916;fill-opacity:1;fill-rule:nonzero;stroke:none" transform="matrix(1.33333 0 0 -1.33333 22.971 171.36151)" clip-path="url(#f)"/><path d="M0 0c0-.891.354-1.254.686-1.4.314-.131.602-.024.602-.211 0-.067-.024-.123-.159-.123-.377 0-1.195.023-1.65.023-.456 0-.886-.023-1.27-.023-.129 0-.152.056-.152.123 0 .187.287.08.6.211.332.146.689.509.689 1.4v4.854c-.366.533-.679.675-1.033.72-.179.026-.256.026-.256.145 0 .088.043.125.132.125.377 0 .791-.022 1.202-.022H.635l3.488-4.371.148-.18v2.834c0 .891-.353 1.26-.685 1.405-.313.135-.602.019-.602.209 0 .068.02.125.157.125.377 0 1.17-.022 1.629-.022.452 0 .884.022 1.263.022.133 0 .154-.057.154-.125 0-.19-.289-.074-.597-.209-.336-.145-.691-.514-.691-1.405v-5.716c0-.211-.009-.368-.1-.368-.101 0-.179.135-.278.268L.057 3.967 0 4.053Z" style="fill:#231916;fill-opacity:1;fill-rule:nonzero;stroke:none" transform="matrix(1.33333 0 0 -1.33333 34.5961 177.93711)" clip-path="url(#g)"/><path d="M0 0c1.564 0 1.896.34 2.375 1.031.489.698.477 1.365.668 1.365.04 0 .098-.031.098-.121 0-.066-.032-.234-.078-.447L2.607-.514C1.719-.502.808-.49-.103-.49s-1.825-.024-2.734-.024c-.089 0-.13.057-.13.1 0 .055.041.135.119.266l3.969 6.652h-.67c-1.503 0-1.844-.162-2.379-1.031-.476-.778-.386-.912-.529-.912-.07 0-.088.035-.088.089 0 .036.018.123.066.291l.551 2.123c.803 0 1.616-.021 2.436-.021.82 0 1.635.021 2.478.021.143 0 .176-.037.176-.091 0-.055-.079-.178-.164-.33L-.909 0Z" style="fill:#231916;fill-opacity:1;fill-rule:nonzero;stroke:none" transform="matrix(1.33333 0 0 -1.33333 47.7966 179.56471)" clip-path="url(#h)"/><path d="M0 0c0-1.654-1.132-2.477-2.687-2.477-1.736 0-2.845.801-2.845 1.956v4.865c0 .89-.957.455-.957.765 0 .09.047.147.224.147.568 0 1.104-.022 1.543-.022.446 0 .983.022 1.542.022.183 0 .224-.057.224-.147 0-.31-.951.125-.951-.765V-.521c0-.913.885-1.52 1.675-1.52.938 0 1.663.652 1.663 1.975v3.365c0 .957-.356 1.5-.868 1.668-.167.054-.334.062-.334.164 0 .068.02.125.157.125.288 0 1.027-.022 1.483-.022.454 0 .886.022 1.175.022.133 0 .155-.057.155-.125 0-.102-.165-.11-.332-.164C.358 4.799 0 4.256 0 3.299Z" style="fill:#231916;fill-opacity:1;fill-rule:nonzero;stroke:none" transform="matrix(1.33333 0 0 -1.33333 102.2614 177.15321)" clip-path="url(#i)"/><path d="M0 0c0 .891-.957.455-.957.766 0 .089.047.146.225.146C-.166.912.369.891.812.891c.444 0 .976.021 1.543.021.178 0 .223-.057.223-.146 0-.311-.959.125-.959-.766v-5.754c0-.889.959-.457.959-.769 0-.086-.045-.143-.223-.143-.567 0-1.099.023-1.543.023-.443 0-.978-.023-1.544-.023-.178 0-.225.057-.225.143 0 .312.957-.12.957.769z" style="fill:#231916;fill-opacity:1;fill-rule:nonzero;stroke:none" transform="matrix(1.33333 0 0 -1.33333 117.9137 171.36151)" clip-path="url(#j)"/><path d="M0 0c.088.225.206.555.206.799 0 1.084-1.017.746-1.017 1.021 0 .055.067.125.185.125.386 0 .747-.021 1.128-.021.363 0 1.08.021 1.461.021.219 0 .351-.047.351-.146 0-.32-.853.135-1.506-1.469l-2.412-5.863c-.06-.133-.113-.254-.178-.254-.07 0-.121.121-.178.254L-4.637.955c-.39.934-1.023.656-1.023.881 0 .053.057.109.156.109.567 0 1.067-.021 1.58-.021.498 0 1.01.021 1.508.021.198 0 .266-.047.266-.125 0-.232-.778.055-.778-.531 0-.156.046-.299.091-.414l1.558-3.934z" style="fill:#231916;fill-opacity:1;fill-rule:nonzero;stroke:none" transform="matrix(1.33333 0 0 -1.33333 130.0803 172.73921)" clip-path="url(#k)"/><path d="M0 0h.435c1.254 0 1.809.562 1.809 1.512 0 1.058-.598 1.531-1.544 1.531H0Zm1.43-1.234C1.168-.68.645-.59 0-.59v-2.566c0-.889.958-.457.958-.77 0-.086-.046-.142-.224-.142-.567 0-1.099.023-1.545.023-.445 0-.976-.023-1.543-.023-.177 0-.224.056-.224.142 0 .313.957-.119.957.77v5.754c0 .89-.957.455-.957.765 0 .09.047.147.224.147.567 0 1.098-.022 1.543-.022.557 0 1.034.022 1.769.022 1.897 0 2.907-.848 2.907-1.979C3.865.596 3.289-.18 1-.424v-.023c1.188 0 1.833-.287 2.268-1.119L4.1-3.18c.456-.877 1.189-.453 1.189-.765 0-.067-.012-.123-.113-.123-.401 0-.797.023-1.197.023h-1.2z" style="fill:#231916;fill-opacity:1;fill-rule:nonzero;stroke:none" transform="matrix(1.33333 0 0 -1.33333 148.3617 174.82511)" clip-path="url(#l)"/><path d="M0 0c0 .891-.955.455-.955.766 0 .089.043.146.223.146C-.166.912.363.891.811.891c.442 0 .975.021 1.544.021.176 0 .221-.057.221-.146 0-.311-.957.125-.957-.766v-5.754c0-.889.957-.457.957-.769 0-.086-.045-.143-.221-.143-.569 0-1.102.023-1.544.023-.448 0-.977-.023-1.543-.023-.18 0-.223.057-.223.143 0 .312.955-.12.955.769z" style="fill:#231916;fill-opacity:1;fill-rule:nonzero;stroke:none" transform="matrix(1.33333 0 0 -1.33333 167.0674 171.36151)" clip-path="url(#m)"/><path d="M0 0c-2.2-.602-2.312-2.143-2.566-2.143-.055 0-.1.034-.1.114 0 .043.021.222.057.402l.365 2.029c.033.164.065.211.123.211.055 0 .1-.033.154-.076.056-.035.131-.1.289-.1h4.979c.157 0 .231.065.285.1.057.043.103.076.158.076.057 0 .088-.047.123-.211l.365-2.029c.036-.18.055-.359.055-.402 0-.08-.043-.114-.097-.114-.254 0-.368 1.541-2.567 2.143v-5.986c0-.711.346-.868.891-.868.13 0 .198-.031.198-.142 0-.088-.058-.123-.178-.123-.636 0-1.198.023-1.72.023-.525 0-1.09-.023-1.724-.023-.123 0-.178.035-.178.123 0 .111.067.142.197.142.548 0 .891.157.891.868z" style="fill:#231916;fill-opacity:1;fill-rule:nonzero;stroke:none" transform="matrix(1.33333 0 0 -1.33333 175.359 170.75741)" clip-path="url(#n)"/><path d="m0 0 .832 1.291c.288.506.397 1.012.397 1.309 0 .746-.688.632-.688.81 0 .069.066.125.221.125.358 0 .781-.021 1.224-.021.346 0 .703.021 1.034.021.076 0 .121-.047.121-.109 0-.225-.52.072-1.576-1.692L.252-.455v-2.676c0-.889.955-.457.955-.769 0-.086-.045-.143-.221-.143-.564 0-1.099.023-1.543.023-.447 0-.981-.023-1.545-.023-.179 0-.224.057-.224.143 0 .312.957-.12.957.769v2.467L-3.156 2.59c-.479.875-1.103.588-1.103.82 0 .078.069.125.19.125.543 0 1.056-.021 1.579-.021.523 0 1.032.021 1.554.021.163 0 .247-.037.247-.109 0-.237-.702.029-.702-.594 0-.189.069-.367.202-.619z" style="fill:#231916;fill-opacity:1;fill-rule:nonzero;stroke:none" transform="matrix(1.33333 0 0 -1.33333 187.4033 174.85901)" clip-path="url(#o)"/><path d="M0 0c0 .891-.955.455-.955.766 0 .089.045.146.222.146C-.168.912.365.891.811.891c.444 0 .977.021 1.544.021.178 0 .221-.057.221-.146 0-.311-.955.125-.955-.766v-2.41h2.912V0c0 .891-.954.455-.954.766 0 .089.042.146.22.146.566 0 1.099-.021 1.543-.021.445 0 .98.021 1.545.021.177 0 .222-.057.222-.146 0-.311-.958.125-.958-.766v-5.754c0-.889.958-.457.958-.769 0-.086-.045-.143-.222-.143-.565 0-1.1.023-1.545.023-.444 0-.977-.023-1.543-.023-.178 0-.22.057-.22.143 0 .312.954-.12.954.769v2.789H1.621v-2.789c0-.889.955-.457.955-.769 0-.086-.043-.143-.221-.143-.567 0-1.1.023-1.544.023-.446 0-.979-.023-1.544-.023-.177 0-.222.057-.222.143 0 .312.955-.12.955.769z" style="fill:#231916;fill-opacity:1;fill-rule:nonzero;stroke:none" transform="matrix(1.33333 0 0 -1.33333 54.9893 171.36151)" clip-path="url(#p)"/><path d="M0 0c0 .891-.953.455-.953.766 0 .089.041.146.221.146C-.168.912.365.891.811.891 2.189.891 3.499.9 4.81.912l.557-2.123c.045-.168.065-.256.065-.291 0-.055-.033-.09-.112-.09-.098 0-.088.194-.518.912C4.279.189 3.556.453 2.224.453h-.603V-2.41h.28c.778 0 1.343.433 1.388 1.236.01.223.043.276.154.276.073 0 .113-.053.113-.161v-3.396c0-.102-.04-.156-.113-.156-.111 0-.144.054-.154.279-.045.986-.61 1.367-1.388 1.367h-.28v-2.658c0-.51.369-.582.912-.582 1.474 0 2.666 1.039 3.012 2.139.065.212.075.31.179.31.078 0 .106-.055.106-.121s-.021-.199-.04-.324l-.489-2.465c-1.467.012-2.946.023-4.49.023-.446 0-.979-.023-1.543-.023-.18 0-.221.057-.221.143 0 .312.953-.12.953.769z" style="fill:#231916;fill-opacity:1;fill-rule:nonzero;stroke:none" transform="matrix(1.33333 0 0 -1.33333 67.3981 171.36151)" clip-path="url(#q)"/><path d="M0 0c0-.891.355-1.254.691-1.4.308-.131.6-.024.6-.211 0-.067-.022-.123-.157-.123-.378 0-1.197.023-1.654.023-.455 0-.883-.023-1.265-.023-.13 0-.156.056-.156.123 0 .187.286.08.599.211.335.146.69.509.69 1.4v4.854c-.366.533-.68.675-1.034.72-.175.026-.255.026-.255.145 0 .088.046.125.132.125.381 0 .791-.022 1.203-.022H.637l3.491-4.371.149-.18v2.834c0 .891-.355 1.26-.689 1.405-.311.135-.6.019-.6.209 0 .068.024.125.155.125.378 0 1.17-.022 1.628-.022.455 0 .887.022 1.265.022.135 0 .155-.057.155-.125 0-.19-.29-.074-.599-.209-.332-.145-.69-.514-.69-1.405v-5.716c0-.211-.009-.368-.099-.368-.099 0-.18.135-.281.268L.06 3.967 0 4.053Z" style="fill:#231916;fill-opacity:1;fill-rule:nonzero;stroke:none" transform="matrix(1.33333 0 0 -1.33333 79.0205 177.93711)" clip-path="url(#r)"/><path d="M0 0c-1.322-.604-2.639-2.072-2.865-3.203C-2.979-5.051-1.432-5.691 0-6.293c.338.076.564.076.829.527.453 1.659.942 2.6 1.997 3.844 0 .113 0 .227.037.34C2.485.377 1.244.566 0 0" style="fill:#231916;fill-opacity:1;fill-rule:evenodd;stroke:none" transform="matrix(1.33333 0 0 -1.33333 15.7002 144.89281)" clip-path="url(#s)"/><path d="M0 0c-1.729.941-.713 6.289-.525 7.723C0 9.117.529 11.303.454 12.66c-1.167 2.111-1.732 1.922-3.354.904-2.828-3.732-2.6-7.423-2.526-12.437.302-2.449.302-6.861 2.789-8.443 2.332.414 4.334 5.164 4.184 7.728C1.02 1.391.871.037 0 0" style="fill:#231916;fill-opacity:1;fill-rule:evenodd;stroke:none" transform="matrix(1.33333 0 0 -1.33333 7.4554 141.56991)" clip-path="url(#t)"/><path d="M0 0c.302.111.755.264 1.169.488.905.414 1.696 1.094.642 2.151-.188.035-.415.035-.642.035-1.622-.035-4.446-1.166-4.56 1.283.866 1.318 2.713 3.504 2.864 5.051-1.244.414-1.129.678-1.094 1.846.156.082.23.136.331.242.864.527 1.667 1.492 2.459 2.547.565.714 1.091 1.47 1.62 2.111 1.093 2.865 0 3.994-1.62 4.297-1.281.261-2.976-.039-4.108-.342-.563-.299-2.637-1.242-2.601-1.695-.415-.301-.612-.426-.716-.602-.904-1.808-.075-2.187 1.735-2.299.763.297 2.561 2.942 3.692 1.508 0-.226-.188-.49-.149-.717-.077 0 .037 0 0 0-.453-1.205-2.714-3.316-3.393-4.07-.715-1.545.377-2.865.453-4.711-.113-.414-.264-.832-.379-1.281-1.056-1.168-1.846-3.055-3.09-3.996C-7.764 1.24-8.856.375-9.008-.15c-.111-.114-.226-.192-.338-.301-1.092-.983-2.072-2.151-3.052-3.094 0-.113.037-.225.037-.301.64-.488 1.882-.867 3.015-.978h.565c.079.015.234-.01.234.031.074.035.017.111-.008.156 0 .114 0 .227.038.303 1.169 1.393 1.81 2.561 3.693 2.752-.076-.229.039-1.963.303-10.367-.141-.143-.038-.147-.832-.447-.05-.01-.092-.026-.147-.042-.378-.265-.756-.605-.831-1.207.159-.013.04 0 0 0 .188-2.111.415-3.695 2.3-5.164 1.469.227 2.147 1.998 2.638 3.469.036 1.922.036 1.922-.074 14.51.489.303.976.566 1.467.83" style="fill:#231916;fill-opacity:1;fill-rule:evenodd;stroke:none" transform="matrix(1.33333 0 0 -1.33333 28.1611 133.03081)" clip-path="url(#u)"/><path d="M0 0c-.073-.039-.148-.074-.263-.113-.827-.528-1.469-1.733-.301-2.6C0-4.824-1.582-5.354-2.261-6.936c.04-.076.04-.187.115-.3.223-.039.491-.075.714-.151.342.076.755.151 1.169.264C1.85-6.596 4.75-5.691 4.3-2.826 3.205-.527 2 .15 0 0" style="fill:#231916;fill-opacity:1;fill-rule:evenodd;stroke:none" transform="matrix(1.33333 0 0 -1.33333 30.0699 140.21831)" clip-path="url(#v)"/><path d="M0 0c1.508.15 1.846.15 2.941 1.168.066.109.069.068.102.109.04 0 .025.053.05.096.038 1.922-.68 3.213-1.057 3.564C-1.584 6.709-3.994 1.922 0 0" style="fill:#231916;fill-opacity:1;fill-rule:evenodd;stroke:none" transform="matrix(1.33333 0 0 -1.33333 4.9945 120.11681)" clip-path="url(#w)"/><path d="M0 0c.177-.039.401-.006.605.076.185.151.337.301.488.49.943 1.245 1.656 3.43 1.016 4.748-.338.19-.715.225-1.016.19C-.979 5.314-2.601 1.432 0 0" style="fill:#231916;fill-opacity:1;fill-rule:evenodd;stroke:none" transform="matrix(1.33333 0 0 -1.33333 14.2431 122.12721)" clip-path="url(#x)"/><path d="M0 0c-.036-.039-.005-.076-.015-.15-.943-.791-2.095-2.981-3.15-3.129-.266 2.523.226 5.05.376 7.384.679 1.36 1.055 1.36 2.449 1.999.831.49 1.207.908 1.546 1.81V8.404c-.113 2.073-.751 2.45-2.411 2.715-.263 1.469-.151 2.824-.226 4.145-.98 1.054-2.676-.264-3.168-1.168-1.884-1.471-.601-3.432-.826-5.805-.943-.678-2.263-1.547-3.092-2.373C-9.573 3.58-9.12 3.24-6.933 2.336c.299-1.168-.451-4.107-.603-5.049.072-1.734-.19-4.9 1.732-6.107 2.373.603 7.049 6.218 6.897 9.197C.642.453.34.187 0 0" style="fill:#231916;fill-opacity:1;fill-rule:evenodd;stroke:none" transform="matrix(1.33333 0 0 -1.33333 65.5999 137.40321)" clip-path="url(#y)"/><path d="M0 0c.076-3.09.04-6.066-.263-9.311-.303-1.017-.94-2.449-1.055-3.806-.037-.225-.037-.414 0-.641.039-.338.115-.676.263-.978.844.064 1.811.527 2.639 1.658C3.207-9.348 3.732-3.732 3.395.338 2.376 2.977.794 1.695 0 0" style="fill:#231916;fill-opacity:1;fill-rule:evenodd;stroke:none" transform="matrix(1.33333 0 0 -1.33333 68.9658 125.74441)" clip-path="url(#z)"/><path d="M0 0c-1.244.49-1.809.037-2.713-.529-.037-.227-.072-.489-.072-.752.299-9.836.564-20.014.072-30.002-.264-.942-.487-1.434.527-2.149 2.338.227 2.752 1.207 3.168 3.694.038 2.222-.065 10.676.074 10.779-.126.76-.056 3.768 0 3.92.04 8.256.04 8.256-.036 13.795C.642-.566.416-.301 0 0" style="fill:#231916;fill-opacity:1;fill-rule:evenodd;stroke:none" transform="matrix(1.33333 0 0 -1.33333 84.7966 113.23141)" clip-path="url(#A)"/><path d="M0 0c-1.922.791-2.149-2.336-2.674-3.654-.228-1.658-1.812-7.35.715-8.557.563.039.864.266 1.355.604C.604-8.252.492-4.145.682-.676.527-.451.113-.148 0 0" style="fill:#231916;fill-opacity:1;fill-rule:evenodd;stroke:none" transform="matrix(1.33333 0 0 -1.33333 79.5205 124.23921)" clip-path="url(#B)"/><path d="M0 0c0 .076-.184.057-.184.094-.179.111-.076.052-.109.084-.062.062-.236.101-.236.177-.397.11-1.315 1.036-1.771 1.299 0 .076-.319.174-.319.25-.559.268-.749.641-1.009.891-.271.168-.339.199-.588.457-.536.338-.776.703-.931.893-.134.109-.162.169-.201.169-.451.641-.938 1.207-1.431 1.735-.564.64-1.129 1.244-1.582 1.996-1.205.191-1.887-.299-1.77-1.656.603-2.035 1.847-4.147 3.352-5.994 1.621-1.961 3.542-3.655 5.465-4.749 1.92.075 3.658-.113 5.128 1.508.022.264.11.586-.078.83C2.454-1.113 1.172-.527 0 0" style="fill:#231916;fill-opacity:1;fill-rule:evenodd;stroke:none" transform="matrix(1.33333 0 0 -1.33333 136.0986 147.12721)" clip-path="url(#C)"/><path d="M0 0c1.883.791 3.806 1.545 3.318 4.41C2.451 5.689 2.035 5.953.905 6.143.566 5.992.264 5.84 0 5.689c-.903-.488-1.32-.752-1.43-.752-.039 1.62-.039 3.016-.304 4.446-.789 2-.905 2.338-2.563 2.301-1.431-.301-2.825-1.659-.676-2.715.942-.865.526-4.485-.115-5.391-1.924-.976-3.922-1.959-5.766-3.016-.829-.941-1.172-1.634-1.168-2.826.451-2.75 2.073-.904 3.995-1.468.227-.303-.153-2.034-.301-2.225-.19-.752-1.496-3.588-1.811-3.918-.639-2.148-3.843-4.523-5.502-5.541-.15-.227-.339-.453-.451-.678.112-1.281 1.17-1.847 2.451-2.072 1.317.111 2.143.111 3.239 1.092 1.998 2.976 4.05 6.287 5.295 9.754.036.093.03.16.082.199.677 2.109 1.934 4.596 3.214 6.217.53.375 1.174.64 1.811.904" style="fill:#231916;fill-opacity:1;fill-rule:evenodd;stroke:none" transform="matrix(1.33333 0 0 -1.33333 127.0595 127.95541)" clip-path="url(#D)"/><path d="M0 0c.417.076.721.189.984.377.301.227.567.566.793 1.018.528 2.599.903 5.052 1.243 7.615-.036 1.015-.19 1.695-.567 2.56-.829.303-1.205.227-1.469-.15-.153-.225-.301-.566-.491-.981C-.07 8.33-.562 5.955-.937 3.656-.975 2.338-1.391.867 0 0" style="fill:#231916;fill-opacity:1;fill-rule:evenodd;stroke:none" transform="matrix(1.33333 0 0 -1.33333 170.4737 122.42921)" clip-path="url(#E)"/><path d="M0 0c.038-.453-.065-1.441-.183-1.703 0-.287-.293-.615-.495-.799-.12-.113-.569-.793-.634-.879-.791-.865-1.035-.599-1.978-1.279-.264-.225-.696-.5-.958-.727-1.055-.83-1.97-1.324-3.401-1.963-.377-.15-.758-.529-1.17-.679-.076-.604.492-.68 1.17-.604.564.076 1.17.264 1.431.338.678.266 1.321.529 1.998.791C-2.751-6.9-1.203-6.371.339-6.07c.894.168 2.89.654 4.229.754.751.056.962-.166 1.478-.245.714-1.32-1.242-2.566-1.999-2.941 0-.34.491-.453.981-.566 2.149.15 5.334.459 5.936 3.472 0 2.944-1.94 3.311-3.787 3.537-.406-.025-1.6-.076-3.18-.293-.772-.105-2.516-.627-2.602-.476.342.525 1.32 1.131 1.773 1.545C3.354-.078 2.564.035 2.111.639 1.698 2.902 4.148 2.26 5.052 3.465c-.108.701-.723 1.078-1.315 1.369-.457.228-.877.434-1.173.516.187.98 1.093 1.093 1.958 1.318 1.245.943.456 3.545-.113 4.6-.978.488-2.746.753-3.087-.414.085 0 .036 0 0 0 .148-1.057.415-2.036.036-3.204-.339-.189-.59-.13-.929-.281-.155-.113-.429-.474-.617-.551-.238-1.088.007-1.97-.188-2.486-.117-.162-.246-.334-.377-.514C-1.36 3-2.05 2.002-1.96.826-1.509.035-.678.715 0 0" style="fill:#231916;fill-opacity:1;fill-rule:evenodd;stroke:none" transform="matrix(1.33333 0 0 -1.33333 177.4125 118.40591)" clip-path="url(#F)"/><path d="M0 0c.264.039.563.039.867.115.264.035.526.149.753.377 0 .942-.489 1.43-.753 2.147l-.04.039c-.223 1.129-.184 1.959.04 2.75.228.941.643 1.808 1.091 2.902.079 1.205-.036 1.809-.79 2.225-.113 0-.225 0-.301-.039-1.469-.149-1.734-.641-2.45-1.996-.226-.604-.493-1.358-.681-2.151-.412-1.582-.601-3.314 0-4.598C-1.885.941-1.169.303 0 0" style="fill:#231916;fill-opacity:1;fill-rule:evenodd;stroke:none" transform="matrix(1.33333 0 0 -1.33333 166.057 122.73141)" clip-path="url(#G)"/><path d="M0 0c-1.095-.074-1.886-.111-2.604.418-.111.111-.261.262-.413.414 0 .453.188.828.413 1.205.454.68 1.131 1.281 1.473 1.885.527 2.373.036 2.713-1.473 3.844l-.185.187c-.611.16-1.351.379-1.852.25-.168-.043-1.734-.045-1.982-.541-.086-.172-.209-.844-.298-.99-.225-.379 1.393-.143 1.983-.863.527-.569.715-.872.792-1.887-1.055-1.547-1.62-2.072-1.016-4.221-.416-.15-1.169-.338-2-.601-1.818-.608-2.309-.954-2.745-1.18-.263-.135-.7-.217-.854-.313-.313-.197-.485-.146-2.962-.244-.187 0-.336 0-.412-.113.039-.34.189-.715.412-1.092.53-.941.759-.959 1.85-1.111.148.039 1.469.07 1.658.144 1.201.137 2.184.725 3.053.854 1.244.187 2.6.15 3.24-.34.227-1.094-.603-3.279-1.09-4.334-.983-.98-1.51-.564-2.113.488l-.037.078c-.34 1.395-.527 1.62-1.547 1.356-.375-1.055.078-2.676.188-3.994.416-1.244.492-2.035 1.359-2.602.264-.148.527-.301.905-.453 1.695.229 2.523.943 3.653 2.451l.039.073c.156.164.188.14.19.228C-1.131-8.666-.378-6.48-.643-3.73c.753.64 3.432.679 4.485.492.416-.266 1.232-.381 1.797-.836 1.769 0 3.216 2.681 1.822 4.566C4.711 1.246 2.523.492 0 0" style="fill:#231916;fill-opacity:1;fill-rule:evenodd;stroke:none" transform="matrix(1.33333 0 0 -1.33333 181.3357 141.57781)" clip-path="url(#H)"/><path d="M0 0c.304 1.736.755 4.07.076 5.316-.039 0-.039.038-.076.038C-1.771 5.768-3.389 2-4.067.641c-.566-2.862-.982-4.071 2.147-5.125C-.602-4.109-.487-2.297-.187-.977-.148-.678-.07-.338 0 0" style="fill:#231916;fill-opacity:1;fill-rule:evenodd;stroke:none" transform="matrix(1.33333 0 0 -1.33333 163.0387 132.36151)" clip-path="url(#I)"/><path d="m0 0-.014-.025C-.027-.047-.04-.07-.055-.092c-.076-.152-.338-.303-.379-.416-.084-.748-.059-1.232.145-1.588.01-.025.021-.045.035-.062.008-.012.018-.022.025-.033.053-.071.108-.139.174-.2.063-.064.137-.123.217-.181.015-.012.031-.022.039-.028.002-.004.006-.005.012-.007.002 0 .004-.004.004-.004.299-.2.713-.377 1.271-.571 1.698.528 2.263 2.26 2.489 4.106C3.531 3.697.951 1.576 0 0" style="fill:#231916;fill-opacity:1;fill-rule:evenodd;stroke:none" transform="matrix(1.33333 0 0 -1.33333 15.7731 123.61151)" clip-path="url(#J)"/><path d="M0 0c-.288-.653-.146-1.038.052-1.253.185-.199.433-.211.373-.351-.023-.048-.057-.082-.154-.039-.279.123-.589.281-.924.429-.335.147-.661.272-.939.394-.098.044-.096.091-.075.141.062.139.238-.037.51-.04.292-.002.673.152.961.806l1.577 3.569c-.096.511-.277.719-.525.866-.124.076-.181.1-.141.19.029.065.072.075.138.047.278-.123.573-.274.875-.406l.915-.405 1.3-4.968.016-.007 1.068 2.419c.289.653.147 1.038-.051 1.252-.186.2-.434.211-.372.35.021.049.055.083.154.039.277-.122.589-.28.924-.428.335-.147.66-.272.938-.394.098-.043.097-.092.074-.141-.061-.138-.237.036-.509.04-.292.002-.672-.152-.961-.805L3.365-2.902c-.068-.156-.127-.267-.192-.238-.074.034-.088.157-.118.287L1.481 3.31l-.016.006Z" style="fill:#950041;fill-opacity:1;fill-rule:nonzero;stroke:none" transform="matrix(1.33333 0 0 -1.33333 108.3005 8.34071)" clip-path="url(#K)"/><path d="M0 0c.416.581-.411.744-.266.948.042.058.097.073.213-.01C.317.674.656.41.946.202c.291-.208.65-.442 1.02-.708.116-.084.119-.14.078-.199-.146-.203-.567.527-.983-.054l-2.692-3.762c-.416-.582.411-.744.266-.949-.041-.056-.097-.072-.213.01-.37.266-.708.529-.999.736-.29.209-.65.445-1.02.709-.116.083-.119.14-.078.199.146.203.568-.527.984.054z" style="fill:#950041;fill-opacity:1;fill-rule:nonzero;stroke:none" transform="matrix(1.33333 0 0 -1.33333 119.5999 8.31604)" clip-path="url(#L)"/><path d="M0 0c.179.07.365.186.508.32.622.59-.055 1.006.107 1.16.032.032.108.028.175-.043.209-.22.399-.445.608-.666.203-.214.418-.416.627-.636.122-.129.17-.233.112-.287-.188-.178-.395.572-1.691.07L-4.31-1.918c-.108-.041-.21-.076-.247-.037-.037.039.004.139.051.244L-2.2 3.438c.329.744-.183.959-.054 1.083.033.031.096.029.151-.029.314-.331.578-.636.859-.933.277-.292.573-.578.848-.87.112-.116.123-.18.077-.222-.136-.129-.398.483-.742.159-.089-.087-.15-.193-.19-.279l-1.635-3.47z" style="fill:#950041;fill-opacity:1;fill-rule:nonzero;stroke:none" transform="matrix(1.33333 0 0 -1.33333 127.1142 16.50484)" clip-path="url(#M)"/><path d="M0 0c.613.365-.08.848.135.975.061.037.118.029.191-.094C.56.49.764.113.947-.193c.568-.952 1.116-1.852 1.663-2.752L1.375-4.203c-.097-.1-.148-.151-.172-.164-.038-.024-.075-.014-.107.039-.041.068.093.139.414.736.383.717.399 1.403-.15 2.324l-.248.413-2.208-1.319.115-.189c.32-.537.953-.69 1.523-.391.157.082.21.082.256.006.027-.047.007-.1-.062-.141l-2.346-1.4c-.069-.043-.126-.033-.154.012-.046.076-.02.123.128.222.664.438.791 1.043.471 1.58l-.114.192-1.933-1.153c-.352-.21-.454-.459-.161-.949.714-1.197 1.949-1.332 2.851-1.117.172.041.247.074.288.006.032-.055.006-.1-.039-.127-.046-.027-.147-.066-.241-.102l-1.904-.679c-.597 1.015-1.197 2.041-1.833 3.107-.184.307-.419.664-.652 1.057-.074.121-.053.176.007.213.215.127.31-.711.923-.344z" style="fill:#950041;fill-opacity:1;fill-rule:nonzero;stroke:none" transform="matrix(1.33333 0 0 -1.33333 130.5466 19.14804)" clip-path="url(#N)"/><path d="m0 0 .099-.334c.285-.969.891-1.256 1.798-.988.943.279 1.201.857.986 1.586l-.159.539Zm-.402-1.32c.368.332.394.777.248 1.273L-2.21-.652c-.686-.202-.134-.84-.374-.91-.068-.022-.121 0-.162.138-.128.436-.233.852-.333 1.195-.102.342-.239.749-.368 1.186-.041.137-.008.184.06.203.241.07.123-.764.809-.562l4.436 1.308c.685.203.134.84.374.91.069.022.122 0 .162-.136.128-.438.233-.854.335-1.196.125-.429.25-.793.417-1.357.432-1.465.011-2.438-.862-2.693-.72-.213-1.451.054-2.159 1.763L.107-.807c.271-.916.195-1.478-.349-2.004l-1.053-1.007c-.573-.551-.081-1.02-.321-1.09-.051-.016-.097-.02-.119.056-.091.309-.164.623-.256.93l-.273.926z" style="fill:#950041;fill-opacity:1;fill-rule:nonzero;stroke:none" transform="matrix(1.33333 0 0 -1.33333 132.8161 30.84857)" clip-path="url(#O)"/><path d="M0 0c.107.006.136-.029.139-.082.004-.09-.13-.096-.316-.141C-1.3-.492-2.41-.992-2.348-2.295c.044-.91.534-1.404 1.22-1.371C.674-3.58-.382-.055 1.83.053 2.883.104 3.711-.75 3.765-1.855c.04-.84-.295-1.303-.283-1.553.015-.311.258-.166.266-.326.003-.063-.022-.1-.155-.116l-1.679-.242c-.168-.025-.248-.039-.292-.041-.063-.002-.091.024-.094.067-.004.089.184.107.534.267.97.442 1.536.951 1.488 1.942-.03.632-.331 1.119-1.009 1.086-1.463-.071-.477-3.653-2.894-3.77-1.186-.057-2.144.898-2.21 2.244-.041.883.348 1.322.332 1.67-.017.348-.318.281-.326.432-.002.045.015.072.078.076z" style="fill:#950041;fill-opacity:1;fill-rule:nonzero;stroke:none" transform="matrix(1.33333 0 0 -1.33333 133.8382 38.00484)" clip-path="url(#P)"/><path d="M0 0c.708-.096.465.713.712.68C.783.67.822.629.804.486.743.035.668-.387.621-.742.573-1.096.534-1.521.474-1.975c-.02-.14-.069-.17-.139-.16-.248.033.199.748-.509.842l-4.585.617c-.708.094-.465-.713-.713-.679-.07.009-.11.05-.09.191.06.453.134.875.182 1.228.047.356.087.782.148 1.233.018.142.068.172.138.162.248-.033-.199-.748.509-.844z" style="fill:#950041;fill-opacity:1;fill-rule:nonzero;stroke:none" transform="matrix(1.33333 0 0 -1.33333 137.5179 47.51004)" clip-path="url(#Q)"/><path d="M0 0c.105 1.832-1.169 2.354-1.104 2.549.014.041.051.068.111.047.034-.012.163-.075.29-.145l1.455-.799c.118-.068.144-.105.13-.148-.015-.043-.051-.068-.1-.098-.039-.035-.11-.076-.149-.195L-.643-2.582c-.04-.117-.008-.193.002-.244.02-.055.035-.096.02-.139-.014-.043-.057-.056-.192-.039l-1.643.242c-.144.02-.285.047-.319.059-.059.019-.074.062-.059.105.065.194 1.397-.158 2.418 1.364L-5.105.342c-.542.181-.749-.041-.888-.455-.034-.102-.077-.145-.161-.116-.069.024-.079.075-.048.167.162.482.324.908.458 1.306.134.399.262.836.424 1.319.032.093.071.126.138.103.085-.029.094-.088.06-.189-.14-.414-.109-.717.432-.899Z" style="fill:#950041;fill-opacity:1;fill-rule:nonzero;stroke:none" transform="matrix(1.33333 0 0 -1.33333 136.5166 55.46831)" clip-path="url(#R)"/><path d="m0 0 .677-1.242c.226-.414.52-.703.724-.83.508-.317.725.199.847.125.045-.03.055-.1-.012-.203-.151-.245-.279-.416-.468-.719-.147-.236-.283-.488-.424-.715-.033-.053-.082-.064-.128-.035-.152.094.275.322-.482 1.793L-.2 0l-1.827 1.139c-.607.377-.717-.459-.929-.327-.062.038-.08.092-.005.213.241.385.483.741.673 1.043.188.303.4.676.641 1.063.076.121.132.129.193.09.212-.131-.489-.6.117-.977L.345 1.195l2.981-.164c.802-.047.869.5 1.028.401.053-.034.055-.098.003-.182C4.126.879 3.894.541 3.671.184c-.222-.356-.424-.715-.646-1.071-.071-.113-.127-.152-.179-.119-.159.1.32.463-.105.729-.128.08-.278.109-.509.127z" style="fill:#950041;fill-opacity:1;fill-rule:nonzero;stroke:none" transform="matrix(1.33333 0 0 -1.33333 128.4893 63.81204)" clip-path="url(#S)"/><path d="M0 0c-.089-.059-.131-.045-.161 0-.049.074.062.148.198.283.824.807 1.52 1.809.795 2.893-.506.758-1.18.929-1.751.549C-2.42 2.723.3.242-1.542-.986c-.876-.586-2.026-.28-2.641.64-.465.7-.417 1.27-.556 1.477-.173.26-.307.01-.396.142-.035.053-.033.098.073.18l1.315 1.07c.131.11.193.161.23.186.052.035.09.027.115-.01.049-.074-.102-.185-.32-.502C-4.328 1.32-4.55.592-4-.232c.353-.53.86-.791 1.425-.414 1.218.814-1.472 3.378.541 4.722.988.658 2.301.332 3.05-.789.491-.734.381-1.312.576-1.601.193-.29.416-.077.5-.204.024-.037.024-.068-.028-.103Z" style="fill:#950041;fill-opacity:1;fill-rule:nonzero;stroke:none" transform="matrix(1.33333 0 0 -1.33333 66.0166 66.30431)" clip-path="url(#T)"/><path d="M0 0c-.677-.227-.103-.846-.339-.924-.068-.023-.122-.004-.167.133-.145.432-.265.842-.379 1.182-.114.338-.267.738-.413 1.17-.046.134-.014.183.053.207.237.08.152-.76.829-.532l1.947.655-.747 2.216-1.946-.654c-.677-.228-.103-.844-.339-.924-.068-.023-.122-.004-.167.131-.145.432-.266.846-.379 1.184-.114.338-.267.738-.413 1.17-.046.136-.015.183.054.207.236.08.151-.76.828-.532l4.385 1.475c.676.229.101.846.339.924.067.023.121.004.167-.131.145-.432.264-.844.378-1.184.115-.337.268-.738.413-1.169.045-.135.015-.184-.053-.208-.237-.08-.152.76-.829.532L.988 4.176l.745-2.217 2.236.752c.677.228.101.844.339.926.067.021.121.002.167-.133.145-.432.264-.844.379-1.184.114-.338.267-.738.412-1.17.046-.136.015-.183-.053-.207-.236-.08-.151.76-.829.532Z" style="fill:#950041;fill-opacity:1;fill-rule:nonzero;stroke:none" transform="matrix(1.33333 0 0 -1.33333 57.4997 59.26004)" clip-path="url(#U)"/><path d="M0 0c-.714-.035-.329-.785-.578-.797-.071-.004-.118.029-.125.172C-.725-.17-.729.26-.745.615-.8 1.723-.859 2.773-.92 3.826l1.682.529c.132.043.202.063.229.065.044.002.072-.024.075-.086.005-.08-.147-.078-.711-.455-.674-.453-1.011-1.051-.959-2.121l.023-.481 2.568.125-.01.223C1.946 2.25 1.46 2.682.816 2.686c-.178 0-.224.025-.229.113-.002.055.041.092.121.096l2.73.132c.08.006.125-.027.128-.082.005-.09-.039-.119-.216-.136-.792-.075-1.19-.549-1.16-1.174l.012-.223 2.247.109c.41.02.617.192.589.762-.068 1.393-1.094 2.094-1.991 2.326-.172.045-.252.051-.257.131-.003.063.041.092.094.094.054.004.162-.01.261-.023l1.999-.295c.048-1.178.097-2.366.158-3.606.017-.355.056-.783.078-1.238.008-.143-.036-.18-.108-.184-.249-.011.062.772-.652.737Z" style="fill:#950041;fill-opacity:1;fill-rule:nonzero;stroke:none" transform="matrix(1.33333 0 0 -1.33333 54.4554 47.51524)" clip-path="url(#V)"/><path d="M0 0c.698-.154 1.047.062 1.218.299.158.221.121.467.268.435.053-.011.092-.039.07-.144-.065-.295-.158-.631-.236-.99-.078-.358-.135-.702-.2-.998-.023-.104-.07-.114-.123-.1-.148.031-.012.238-.062.506-.056.287-.283.629-.981.781l-3.812.836C-4.34.43-4.507.211-4.603-.062c-.047-.135-.061-.196-.157-.176-.07.017-.089.056-.073.127.065.297.153.615.224.937l.213.979L.215 4.066l.004.018-2.582.566c-.699.153-1.047-.064-1.218-.3-.158-.223-.121-.467-.269-.436-.052.012-.092.039-.069.145.065.296.157.632.235.99.079.357.136.701.201.998.023.105.07.113.123.101.148-.033.011-.24.062-.507.056-.286.282-.629.981-.782l4.492-.984c.166-.037.286-.072.27-.143-.016-.078-.134-.117-.257-.171L-3.538.793l-.004-.018Z" style="fill:#950041;fill-opacity:1;fill-rule:nonzero;stroke:none" transform="matrix(1.33333 0 0 -1.33333 59.8317 37.61684)" clip-path="url(#W)"/><path d="M0 0c.433.922.27 1.687-.068 2.271-.343.594-.832.815-.767.952.015.033.059.062.123.031.048-.024.158-.104.296-.209l1.551-1.131C.823 1.27.504.611.192-.051c-.31-.664-.605-1.334-.917-1.996-.03-.066-.085-.078-.118-.064-.04.019-.082.078-.152.181l-3.638 5.387-.227-.486c-.421-.897-.359-1.625.089-2.311.403-.613.531-.594.481-.699-.022-.049-.055-.053-.095-.033-.024.01-.081.056-.187.146l-1.355 1.129c.274.582.567 1.164.848 1.762.28.599.541 1.197.829 1.812.05.104.085.118.126.098.04-.02.103-.117.186-.234L-.312-.664z" style="fill:#950041;fill-opacity:1;fill-rule:nonzero;stroke:none" transform="matrix(1.33333 0 0 -1.33333 64.2666 28.35631)" clip-path="url(#X)"/><path d="M0 0c-.558.447-.767-.371-.962-.215-.055.045-.067.102.022.213.285.356.567.678.791.957.223.277.477.625.762.979.089.111.147.111.202.068.196-.156-.556-.539 0-.986L2.418-.27l1.464 1.827-1.603 1.285c-.557.447-.765-.369-.961-.213-.055.043-.068.1.021.211.285.355.567.678.791.957.224.28.477.625.763.98.088.112.146.112.202.068.195-.157-.557-.539 0-.986L6.704.965c.557-.447.766.371.961.215.056-.045.068-.102-.021-.213-.286-.356-.568-.678-.79-.957-.224-.28-.479-.625-.763-.981-.09-.111-.148-.111-.202-.066-.196.156.556.537-.001.984L4.049 1.424 2.585-.402l1.839-1.475c.557-.447.766.369.962.213.055-.045.068-.1-.022-.211-.285-.355-.567-.68-.791-.959-.222-.277-.476-.623-.762-.979-.089-.111-.146-.111-.203-.066-.194.156.558.537 0 .984z" style="fill:#950041;fill-opacity:1;fill-rule:nonzero;stroke:none" transform="matrix(1.33333 0 0 -1.33333 61.3721 19.30951)" clip-path="url(#Y)"/><path d="M0 0c-.416.582-.838-.148-.983.055-.042.058-.039.115.077.199.371.265.729.5 1.02.707.901.644 1.753 1.265 2.605 1.885l1.355-1.127c.107-.089.163-.136.179-.158.025-.036.019-.074-.031-.11-.066-.047-.147.082-.768.352-.746.322-1.432.282-2.304-.341l-.391-.281L2.255-.911l.182.13c.508.363.608 1.006.263 1.55-.096.151-.1.202-.028.254.044.032.099.016.145-.049l1.59-2.223c.047-.065.044-.122 0-.153-.072-.053-.12-.033-.231.108-.491.626-1.107.702-1.614.339l-.182-.131 1.309-1.831c.239-.334.495-.414.959-.082 1.133.811 1.166 2.054.877 2.934-.054.169-.094.24-.029.287.051.036.099.015.13-.028.031-.044.079-.141.122-.232l.833-1.841c-.963-.679-1.935-1.362-2.944-2.085-.29-.209-.629-.473-.999-.736-.117-.084-.171-.069-.213-.01-.146.203.681.367.265.947Z" style="fill:#950041;fill-opacity:1;fill-rule:nonzero;stroke:none" transform="matrix(1.33333 0 0 -1.33333 69.5999 10.40711)" clip-path="url(#Z)"/><path d="M0 0c.253-.669.624-.844.915-.857.272-.012.458.153.512.011.018-.05.017-.098-.083-.136-.284-.107-.615-.213-.959-.342-.342-.129-.661-.27-.947-.376-.099-.038-.131-.003-.151.048-.053.141.195.139.392.328.21.203.373.58.121 1.248l-1.377 3.652c-.428.297-.702.317-.983.249-.139-.033-.198-.055-.233.036-.025.067-.001.105.065.13.285.107.6.208.91.324l.935.353 4.409-2.631.017.006-.933 2.473c-.252.669-.623.843-.915.857-.271.013-.457-.153-.51-.011-.019.05-.018.098.082.136.284.107.616.214.959.343.342.129.662.268.946.376.099.037.133.002.151-.048.054-.143-.195-.141-.391-.329-.209-.203-.373-.58-.12-1.248L4.435.288c.059-.159.095-.278.028-.304-.075-.028-.171.05-.284.121l-5.442 3.293-.016-.005Z" style="fill:#950041;fill-opacity:1;fill-rule:nonzero;stroke:none" transform="matrix(1.33333 0 0 -1.33333 80.6207 9.67271)" clip-path="url(#aa)"/><path d="M0 0c0-.463-.374-.838-.837-.838-.462 0-.837.375-.837.838 0 .463.375.838.837.838C-.374.838 0 .463 0 0" style="fill:#950041;fill-opacity:1;fill-rule:nonzero;stroke:none" transform="matrix(1.33333 0 0 -1.33333 75.8617 75.76257)" clip-path="url(#ab)"/><path d="M0 0c0-.463-.375-.838-.838-.838-.462 0-.837.375-.837.838 0 .463.375.838.837.838C-.375.838 0 .463 0 0" style="fill:#950041;fill-opacity:1;fill-rule:nonzero;stroke:none" transform="matrix(1.33333 0 0 -1.33333 118.2809 75.76257)" clip-path="url(#ac)"/><path d="M0 0c-.119-.355.039-.615.513-.803.449-.177.542-.209.499-.336-.017-.05-.076-.088-.169-.056-.576.193-1.157.396-1.702.57-.578.186-1.166.371-1.742.564-.092.032-.118.098-.101.149.043.127.136.096.601-.033.492-.137.774-.024.893.332L.117 4.342c.066.193.029.254-.124.304l-1.151.385c-.076.026-.108.074-.088.133.043.129.192.012.951-.139 1.139-.23 1.692.075 1.861.018.077-.025.096-.08.048-.225Z" style="fill:#950041;fill-opacity:1;fill-rule:nonzero;stroke:none" transform="matrix(1.33333 0 0 -1.33333 83.4502 82.38764)" clip-path="url(#ad)"/><path d="M0 0c.426-.047.927.187 1.046.373.043.066.134.416.173.781C1.391 2.76.933 3.258.275 3.328c-.505.055-1.053-.191-1.2-1.56C-1.055.553-.577.061 0 0m.328 3.484C1.793 3.328 2.56 2.096 2.4.613c-.274-2.566-3.62-3.195-4.019-3.152-.044.004-.051.031-.046.076.012.106 1.892.381 2.623 2.522-.37-.186-.75-.297-1.229-.246-1.448.154-1.98 1.146-1.884 2.033.113 1.066.982 1.8 2.483 1.638" style="fill:#950041;fill-opacity:1;fill-rule:nonzero;stroke:none" transform="matrix(1.33333 0 0 -1.33333 91.3251 81.56991)" clip-path="url(#ae)"/><path d="M0 0c-.623-.055-1.015-.5-.96-1.133.078-.906 1.458-1.111 2.098-1.26.194.248.333.512.28 1.118C1.339-.359.782.066 0 0m.167-5.883c.89.076 1.304.676 1.245 1.352-.041.482-.27.855-1.253 1.121-.927.252-1.005.326-1.13.314-.159-.013-.564-.515-.498-1.279.082-.961.675-1.592 1.636-1.508m-1.352 2.885c-.558.346-.811.781-.851 1.244C-2.119-.793-1.26.053-.023.158 1 .246 1.819-.311 1.886-1.084c.045-.523-.198-1.039-.599-1.369.696-.172 1.143-.779 1.208-1.535.088-1.024-.855-1.93-2.314-2.057-1.255-.107-2.147.568-2.226 1.484-.044.508.225 1.141.86 1.563" style="fill:#950041;fill-opacity:1;fill-rule:nonzero;stroke:none" transform="matrix(1.33333 0 0 -1.33333 99.6169 77.20791)" clip-path="url(#af)"/><path d="M0 0c.657-.217 1.204-.561 1.42-1.252.358-1.15-.473-2.383-1.718-2.771-1.21-.377-2.17-.059-2.358.546-.105.332.039.713.388.823.435.134.702-.061.9-.635.204-.592.597-.713 1.006-.586.69.217 1.034.885.757 1.771C.171-1.387-.378-1.008-.951-1c-.375.006-.695-.197-.736-.07-.058.187.333.103.69.459.242.244.284.677.138 1.146-.198.631-.735.856-1.426.641C-3.197.891-3.078.18-3.24.129c-.042-.014-.078.014-.092.057-.069.22.199 1.398 1.376 1.765.844.264 1.822.035 2.109-.885C.275.676.193.369 0 0" style="fill:#950041;fill-opacity:1;fill-rule:nonzero;stroke:none" transform="matrix(1.33333 0 0 -1.33333 109.0765 78.25484)" clip-path="url(#ag)"/><path d="M0 0c.07-.045.135-.064.255-.061.254.006.406.155.471.182C.75.135.821.176.82.189.814.299.452.437.269.447.048.457-.302.256-.302.201-.302.135-.072.033 0 0" style="fill:#950041;fill-opacity:1;fill-rule:nonzero;stroke:none" transform="matrix(1.33333 0 0 -1.33333 87.7835 46.89537)" clip-path="url(#ah)"/><path d="M0 0c.104.527-.082.387-1.185.424-.501 0-2.255.045-2.758-.026-.23-.031-.258-.218-.258-.332 0-.38-.096-.339 1.79-.339l.734.056C-.501-.152-.202-.293 0 0" style="fill:#950041;fill-opacity:1;fill-rule:nonzero;stroke:none" transform="matrix(1.33333 0 0 -1.33333 90.6415 52.80951)" clip-path="url(#ai)"/><path d="M0 0c-.613-.217-.559.08-.584.939-.024.563.05 2.315-.719 2.569-.655.314-1.272.336-1.412.129-.105-.155-.062-3.241-.062-3.241.013-.728-.31-.615-.636-.566-.618.162-.551.52-.54 1.096.01.578.012 2.656-.092 2.767-.093.102-1.277.17-1.474-1.072-.188-1.18-.319-1.969-.362-2.219-.027-.154-.057-.351-.173-.39-.221-.071-.657-.168-.738-.049-.126.447-.008 1.107.066 1.851.137.78.325 1.35.56 2.036.086.449 1.3.754 1.988 1.045.408.109.292.74.16.757-.214.053-1.021-.064-1.523-.117-.356.002-.672-.277-.944.332-.138.309-.199.572.641.617l1.09.09s.777.024.827.155c.004.203.041.58.226.884.057.096.376.051.57.035.414-.119.256-.138.33-.654.025-.234-.06-.299 1.307-.265.963.031 1.673.144 1.64-.245.01-.189.013-.584-.084-.683-.138-.145-.411-.082-.864-.108-.673-.006-1.765-.041-1.926-.062-.101-.049-.089-.246-.043-.451.063-.147-.037-.174.599-.319C-.066 4.246-.09 4.373.241 3.008c.2-1.153.175-1.789.187-2.141C.414.475.57.201 0 0m.273-5.162C-.138-6.695-.493-6.516-.785-8.213c.002-.648.343-2.074.487-2.598.096-.496.574-1.474.335-1.548-.241-.073-.778.052-.966.197-.279.215-.507 1.209-.626 1.555-.222.97-.595 2.662.111 4.029.202.439.531 1.017.723 2.129.009 1.506-.081 1.687-.3 2.386-.164.411-.386.729-.01.749 1.118 0 .976-.336 1.298-1.084.197-.883.221-1.231.006-2.764m-2.897-5.668c.226-.791.741-1.481.406-1.568-.264-.063-.735-.032-.889.136-.321.35-.609.991-.809 2.026-.149 1.107-.252 1.8-.141 2.812.347 1.504 1.108 1.971 1.232 3.223.073.806-.016 1.051-.136 1.398-.208.6-.913 1.524-.097 1.524.502 0 .511-.069.711-.223.316-.244.668-1.32.724-1.941.078-.922-.349-1.848-.661-2.651-.354-.908-.709-1.42-.706-2.306.051-.62.112-1.416.366-2.43m-1.821-1.65c-.306-.073-.428-.071-.828 0-.276.046-.414.367-.647 1.091-.11.395-.212.778-.398 1.703-.109 1.038-.24 1.875-.027 2.411.103.386.33.949.558 1.394.182.438.348.756.552 1.529.134.743.131.813-.003 1.45-.042.254-.22.58-.347.923-.206.45-.334.672.181.735.746.055.689-.027 1.028-.526.355-.816.358-1.128.375-1.392.078-.617.05-1.317-.538-2.615-.567-1.121-.799-1.582-.721-2.651.087-1.189.353-2.467.513-2.908.122-.338.541-1.088.302-1.144m-2.609 5.511c-.199-.195-.918-.289-1.072-.517-.153-.227-.103-1.887.004-2 .125-.145.467-.051.979-.002.387.008.524-1.2.227-1.237-.306-.056-1.408-.175-1.991-.236-.625-.076-.983-.121-1.579-.117-.557.004-.549.295-.603.717-.002.476-.054.644.404.586.45-.016.755-.073 1.154.273.296.24.123.865.166 1.334-.016.422.1.807-.497.654-.841-.195-.889-.33-.885 1.1.002.51-.01.996.02 1.336.049.687-.102 1.037.764 1.215.372.082.172-1.051.168-1.578-.004-.502-.068-1.036.214-1.036.709-.05.299 1.541.35 2.879.028.889-.158 1.291.543 1.42.62.088.476-.142.505-.875.009-.695-.031-3.097.268-3.076.592.043.481 2.074.441 2.43-.014.545-.11.781.444.826.427.019.437.053.52-.434.079-.509.093-.988.093-1.371-.04-.498-.063-.758-.163-1.289-.079-.588-.274-.806-.474-1.002m-4.793 21.731h-5.023c0 .693.562 1.256 1.256 1.256h3.138c.348 0 .629-.282.629-.627zm-.634-15.324c-.343-.18-1.633 1.583-2.534 2.732-.312.398-1.458 1.383-2.476 1.439-1.53.086-3.641-2.625-4.17-3.556-.266-.41-.569-.824-1.023-.615-.414.263-.401.253-.163.945.436 1.029 2.334 3.111 3.148 3.693.865.807 1.077.914 1.352 1.875.138 1.752.089 2.166-.421 2.256-.502.055-2.768.383-2.86-1.021-.078-1.192-.073-1.717-.078-2.198.004-.711-.056-.597-.761-.599-.46 0-.22 2.39-.22 4.004.249.98.843.798 1.813.875.502-.053 1.163.003 1.517.003.812 0 1.001.415 1.051 1.065.053.676.123.701.693.793.509.082.458-.311.563-.822.181-.793-.087-.856 1.057-.911.977 0 1.722-.021 2.141-.056.951-.092 1.469.002 1.533-1.459.032-1.227.344-2.385-.032-2.84-.158-.189-.593-.418-.909-.361-.395.215.437 2.925-.591 3.386-.609.276-2.31.278-2.804.043-.471-.22-.279-1.189-.324-1.882 0-.547-.003-1.123 1.117-1.854 1.131-.832 2.156-1.885 3.192-3.121.618-.654 1.165-1.512.189-1.814m.167-4.276c-.353-.072-2.375-.127-2.414-.117-.189.019-.215-.008-.209.268-.007.394.023.433.701.419.66-.015 1.177-.066 1.177.329 0 .298-.077.361-1.151.322-.618-.02-.59-.002-.616.123-.076.379-.165.598.373.627.751.068 1.374.008 1.414.189.072.324-.007.438-.597.399-1.25-.084-1.314-.18-1.328.218 0 .385-.16.493.832.549 1.012.02 1.828.145 1.898-.312.173-.539.182-1.246.211-2.291.019-.696-.02-.676-.291-.723m-6.805 2.943c-.086.045.211.485.384.518.21-.031.786-.373.964-.435.054-.02.232-.098.458-.217.11.05.194.092.239.119.186.115 1.053.599 1.289.588.068-.047.397-.547.171-.682-.288-.185-.611-.422-.824-.508.254-.138.459-.25.506-.275.362-.178.436-.258.397-.623-.042-.072-.198-.199-.28-.235-.191-.084-.351-.195-.552-.285.156-.074.314-.15.464-.226.669-.385.633-.293.433-.637-.257-.357-.62-.168-.785-.096-.084.039-.61.248-1.084.508-.295-.17-.665-.365-1.01-.514-.464-.212-.542-.23-.704 0-.28.409-.109.391.366.676.048.026.281.135.452.256-.207.108-.443.193-.692.352-.064.033-.254.142-.272.263 0 .176-.072.36.456.643.169.086.307.154.465.226-.341.172-.722.374-.841.584m-2.507-.814c0-.229.382-.195 1.132-.17.657 0 .616.143.642-.398.002-.205.023-.254-.421-.268-1.518-.076-1.385-.041-1.381-.396.012-.303.258-.237 1.175-.188.595.025.638.115.684-.285.027-.252-.014-.424-.014-.424-.434 0-2.101-.17-2.512-.123-.442.059-.44.024-.414.91.056.799.089 1.557.263 2.229.193.404.217.322 1.906.394.894-.008.798.057.868-.541.016-.219.059-.261-1.391-.347-.659.013-.553.066-.537-.393m9.538-6.484c-.059-1.473-.093-1.334-1.113-1.334-.89 0-3.107-.002-3.255-.016 0-.205-.057-.662-.029-1.076.033-.574.36-.723-1.99-.965-.555-.049-4.107.09-4.338.51-.26.431-.694 1.127-.361 1.724.502-.396.979-.705 2.057-1.093.861-.151 2.263-.28 2.982-.067.508.209.492.358.463.906-1.656.102-2.539.145-3.088.178-.909.11-.861.098-.876.551.046.365.137.455.728.42.329-.049 1.028-.1 1.98-.1h1.256v.731s-1.276-.049-1.748-.024c-1.504.065-1.262.278-1.338.963.129 1.225.126 1.061 1.235 1.135.952.018 3.645.066 4.342.043 1.09-.102.946-.18.927-1.148-.109-.553.094-.745-.983-.905-.195 0-1.227-.078-1.227-.078v-.717h2.427s.862.014.862.731.101 1.799.101 1.799-.012.765-.755.765c-.742 0-4.802.061-6.465.033-1.289-.009-1.318-.216-1.427-.662-.121-.5-.215-2.549-.597-2.466-.968.242-.75.347-.737.914.04.767.172 1.554.31 2.31.208.537.297.828 3.472.807 1.461 0 5.752.006 5.752.006.967-.061 1.3-.051 1.433-.991.109-1.375.053-1.812 0-2.884m1.016 13.779c0 1.127.114 1.318.335 1.652.243.121.562-.047.671-.185.156-.395-.111-2.381-.145-3.264-.059-.877.225-1.768-.124-1.914-.371-.123-.627-.012-.656.24-.128 1.063-.081 3.471-.081 3.471m.377 3.758c.139.867.072 1.851.149 2.117.081.086.308.15.576.088.321-.227.422-3.024-.289-3.58-.21-.002-.467-.028-.548.121-.104.193.007.627.112 1.254m1.234-1.867c.046.589.218 2.611.148 3.127.015.335-.036.81.074 1.177.05.17.221.194.511.221.472.092.371-1.557.371-1.557-.044-1.425-.425-4.228-.425-4.965-.144-1.205.428-4.416.111-4.716-.103-.051-.503-.116-.603.086-.303.869-.323 2.201-.375 3.336-.08 1.283.141 2.701.188 3.291m1.667-.745c.44-.177.466-1.558.466-1.558.01-.186.041-1.389.041-1.801.013-.402.032-.699-.032-.873-.141-.111-.302-.139-.553-.088-.2.119-.305 1.188-.305 1.543 0 .356-.01 1.18-.114 1.981-.104.798-.017.707.497.796m-.222 4.457c.018.364-.004.454.298.475.484.014.477-.162.517-.406-.007-.385-.018-1.168-.026-1.904-.002-.43.003-1.348-.335-1.477-.381-.051-.607-.09-.584.34-.029.248.105.631.169 1.023.064.393.008 1.483-.039 1.949m1.236-1.482c.184 1.75.227 1.57 1.198 1.932 1.158.211 1.787.392 2.39.375.603-.018 1.952-.053 3.193-.528.534-.189.317-.367.344-2.375-.083-.756-.147-.632-.921-.705-.636.018-.976-.039-1.801.192-.269.33-.598 2.132-1.206 1.912-.253-.192 0-.217-.437-1.09-.089-.137-.24-.566-.402-.748-.621-.285-1.156-.203-1.862-.229-.656.026-.488.344-.496 1.264m10.422.389c0-.479.201-.91.522-1.215l.012-.012 5.67-5.672.001-.002c.303-.302.492-.722.492-1.185v7.094c0 .332-.193.796-.427 1.033L-1.985 21.031c-.236.238-.7.43-1.032.43h-.877v-.001c-.231 0-.418-.188-.418-.419v-5.65c0-.348-.28-.627-.626-.629h-.63v5.441c0 .693-.562 1.257-1.256 1.257h-9.209c-.694 0-1.256-.564-1.256-1.257v-5.441h-.63c-.346.002-.626.281-.626.629v5.65c0 .231-.187.419-.419.419v.001h-.876c-.333 0-.797-.192-1.032-.43L-32.769 9.137c-.235-.237-.426-.701-.426-1.033V1.01c0 .463.187.883.492 1.185v.002l5.671 5.672.011.012c.322.305.523.736.523 1.215V7.914c0-.463-.189-.883-.493-1.185v-.002l-5.671-5.67-.011-.014c-.322-.307-.522-.738-.522-1.215v-6.422c0 .465.187.885.492 1.188l5.671 5.672.011.013c.322.305.523.737.523 1.215V.312c0-.464-.189-.884-.493-1.187l-5.671-5.672-.011-.014c-.322-.304-.522-.736-.522-1.214v-.946c0-.332.191-.795.426-1.031l1.662-1.66 4.075 4.074.011.014c.322.306.523.736.523 1.215v-1.182c0-.463-.189-.883-.493-1.186v-.002l-3.526-3.525 9.545-9.545 2.582 4.645c.222.41.656.689 1.155.689h.997c-.508 0-.949-.289-1.166-.711l-2.825-5.084c.135-.041.27-.064.389-.064h4.898l.935 5.164c.07.394.416.695.831.695h.857c-.418 0-.765-.303-.832-.703l-.935-5.156h5.315l-.935 5.156c-.066.4-.414.703-.832.703h.856c.416 0 .762-.301.831-.695l.936-5.164h4.898c.119 0 .254.023.389.064l-2.825 5.084c-.217.422-.658.711-1.166.711h.998c.499 0 .932-.279 1.153-.689l2.582-4.645 9.545 9.545-3.524 3.525-.001.002c-.305.303-.492.723-.492 1.186v1.182c0-.479.201-.909.522-1.215l.012-.014 4.074-4.074 1.662 1.66c.234.236.427.699.427 1.031v.946c0 .478-.201.91-.523 1.214l-.011.014-5.67 5.672h-.001c-.305.303-.492.723-.492 1.187v1.182c0-.478.201-.91.522-1.215l.012-.013 5.67-5.672h.001c.303-.303.492-.723.492-1.188v6.422c0 .477-.201.908-.523 1.215l-.011.014-5.67 5.67-.001.002c-.305.302-.492.722-.492 1.185v.49z" style="fill:#950041;fill-opacity:1;fill-rule:nonzero;stroke:none" transform="matrix(1.33333 0 0 -1.33333 111.2393 42.36417)" clip-path="url(#aj)"/><path d="m0 0 .509.029C.775.09.744.482.593 1.053c-.168.342-.648.318-1.112.308-.186-.009-.323-.039-.262-.33C-.595-.102-.546.074 0 0" style="fill:#950041;fill-opacity:1;fill-rule:nonzero;stroke:none" transform="matrix(1.33333 0 0 -1.33333 109.5635 30.99444)" clip-path="url(#ak)"/><path d="m0 0 .367.027c.74.051.697.453.787 1.075.043.246-.372.189-.776.117-.384-.074-.397-.057-.471-.34C-.163.611-.265.078 0 0" style="fill:#950041;fill-opacity:1;fill-rule:nonzero;stroke:none" transform="matrix(1.33333 0 0 -1.33333 103.6637 31.08551)" clip-path="url(#al)"/><path d="M0 0c-.206-1.314-1.208-1.826-2.443-1.633-1.376.216-2.16.989-2.016 1.906l.605 3.865c.111.705-.702.48-.664.728.012.07.054.109.195.086.45-.07.871-.154 1.223-.209.354-.056.78-.104 1.23-.176.141-.021.17-.07.158-.141-.038-.247-.743.216-.853-.489L-3.171.072c-.113-.723.399-1.382 1.131-1.497.926-.144 1.655.356 1.819 1.405l.419 2.673c.118.759-.095 1.236-.481 1.432-.125.064-.256.094-.243.174.007.053.032.094.138.077.229-.036.571-.107.932-.163.362-.058.709-.094.938-.129.106-.017.117-.064.109-.117-.013-.079-.147-.067-.286-.091C.879 3.768.528 3.379.41 2.621Z" style="fill:#950041;fill-opacity:1;fill-rule:nonzero;stroke:none" transform="matrix(1.33333 0 0 -1.33333 104.7562 6.61151)" clip-path="url(#am)"/></g></svg>