<svg xmlns="http://www.w3.org/2000/svg" xmlns:xlink="http://www.w3.org/1999/xlink" viewBox="0 0 169.88293 50.550659">
  <defs>
    <path id="reuse-0" d="M0 612.288h858.897V0H0z"/>
  </defs>
  <defs>
    <clipPath id="a" clipPathUnits="userSpaceOnUse">
      <use transform="translate(-146.72663 -413.74411)" xlink:href="#reuse-0"/>
    </clipPath>
    <clipPath id="b" clipPathUnits="userSpaceOnUse">
      <use transform="translate(-141.25201 -415.95211)" xlink:href="#reuse-0"/>
    </clipPath>
    <clipPath id="c" clipPathUnits="userSpaceOnUse">
      <use transform="translate(-155.00108 -421.62211)" xlink:href="#reuse-0"/>
    </clipPath>
    <clipPath id="d" clipPathUnits="userSpaceOnUse">
      <use transform="translate(-156.26963 -416.84961)" xlink:href="#reuse-0"/>
    </clipPath>
    <clipPath id="e" clipPathUnits="userSpaceOnUse">
      <use transform="translate(-139.61821 -430.19871)" xlink:href="#reuse-0"/>
    </clipPath>
    <clipPath id="f" clipPathUnits="userSpaceOnUse">
      <use transform="translate(-145.75891 -428.86331)" xlink:href="#reuse-0"/>
    </clipPath>
    <clipPath id="g" clipPathUnits="userSpaceOnUse">
      <use transform="translate(-179.86531 -418.71781)" xlink:href="#reuse-0"/>
    </clipPath>
    <clipPath id="h" clipPathUnits="userSpaceOnUse">
      <use transform="translate(-182.09971 -426.46091)" xlink:href="#reuse-0"/>
    </clipPath>
    <clipPath id="i" clipPathUnits="userSpaceOnUse">
      <use transform="translate(-192.61141 -434.77051)" xlink:href="#reuse-0"/>
    </clipPath>
    <clipPath id="j" clipPathUnits="userSpaceOnUse">
      <use transform="translate(-189.10748 -427.46091)" xlink:href="#reuse-0"/>
    </clipPath>
    <clipPath id="k" clipPathUnits="userSpaceOnUse">
      <use transform="translate(-226.68069 -412.26171)" xlink:href="#reuse-0"/>
    </clipPath>
    <clipPath id="l" clipPathUnits="userSpaceOnUse">
      <use transform="translate(-220.67881 -424.99221)" xlink:href="#reuse-0"/>
    </clipPath>
    <clipPath id="m" clipPathUnits="userSpaceOnUse">
      <use transform="translate(-249.51084 -428.66411)" xlink:href="#reuse-0"/>
    </clipPath>
    <clipPath id="n" clipPathUnits="userSpaceOnUse">
      <use transform="translate(-254.11734 -431.33401)" xlink:href="#reuse-0"/>
    </clipPath>
    <clipPath id="o" clipPathUnits="userSpaceOnUse">
      <use transform="translate(-246.57624 -428.46291)" xlink:href="#reuse-0"/>
    </clipPath>
    <clipPath id="p" clipPathUnits="userSpaceOnUse">
      <use transform="translate(-256.72171 -415.94731)" xlink:href="#reuse-0"/>
    </clipPath>
    <clipPath id="q" clipPathUnits="userSpaceOnUse">
      <use transform="translate(-244.57231 -422.06641)" xlink:href="#reuse-0"/>
    </clipPath>
    <clipPath id="r" clipPathUnits="userSpaceOnUse">
      <use transform="translate(-146.77553 -427.87701)" xlink:href="#reuse-0"/>
    </clipPath>
  </defs>
  <g transform="translate(-1334.5013 -1054.4331)" style="display:none">
    <path style="fill:#231916;fill-opacity:1;fill-rule:evenodd;stroke:none" id="s" d="M0 0c-1.17-.533-2.337-1.833-2.537-2.836-.1-1.635 1.268-2.202 2.537-2.736.3.067.5.067.734.467.4 1.468.833 2.302 1.769 3.404 0 .101 0 .201.032.301C2.201.336 1.102.502 0 0" clip-path="url(#a)" transform="matrix(1.33333 0 0 -1.33333 1350.122 948.68936)"/>
    <path style="fill:#231916;fill-opacity:1;fill-rule:evenodd;stroke:none" id="t" d="M0 0c-1.533.834-.633 5.568-.467 6.839C0 8.073.468 10.008.4 11.21c-1.033 1.869-1.534 1.701-2.969.801C-5.071 8.706-4.872 5.436-4.806.999c.268-2.17.268-6.075 2.47-7.477 2.065.366 3.839 4.573 3.705 6.841C.901 1.231.77.032 0 0" clip-path="url(#b)" transform="matrix(1.33333 0 0 -1.33333 1342.8225 945.74536)"/>
    <path style="fill:#231916;fill-opacity:1;fill-rule:evenodd;stroke:none" id="u" d="M0 0c.268.1.669.233 1.036.432.801.367 1.501.969.568 1.905-.167.031-.368.031-.568.031-1.435-.031-3.938-1.034-4.038 1.137C-2.235 4.672-.6 6.606-.466 7.976c-1.101.366-1.001.601-.969 1.635.14.072.204.119.291.214.767.467 1.48 1.322 2.18 2.255.5.635.967 1.302 1.435 1.869.967 2.536 0 3.539-1.435 3.805-1.135.233-2.637-.033-3.638-.301-.5-.266-2.335-1.101-2.302-1.502-.367-.266-.543-.378-.635-.534-.801-1.603-.066-1.937 1.536-2.035.676.263 2.269 2.605 3.271 1.335 0-.2-.168-.434-.133-.635-.068 0 .032 0 0 0-.402-1.068-2.405-2.935-3.004-3.603-.635-1.368.334-2.537.399-4.171-.099-.368-.234-.736-.333-1.135-.935-1.034-1.635-2.703-2.737-3.537C-6.874 1.1-7.842.332-7.975-.135c-.099-.099-.202-.167-.299-.266-.968-.869-1.836-1.902-2.704-2.737 0-.099.035-.2.035-.267.565-.433 1.666-.768 2.669-.866h.5c.069.012.207-.007.207.026.067.034.014.1-.007.141 0 .101 0 .2.034.266 1.033 1.234 1.601 2.269 3.269 2.437-.067-.203.035-1.737.268-9.178-.124-.126-.034-.131-.735-.397-.044-.008-.084-.022-.132-.036-.334-.235-.669-.536-.735-1.069.14-.012.034 0 0 0 .167-1.87.367-3.272 2.036-4.572 1.3.2 1.901 1.767 2.335 3.07.033 1.704.033 1.704-.066 12.849.435.267.866.5 1.3.734" clip-path="url(#c)" transform="matrix(1.33333 0 0 -1.33333 1361.1546 938.18536)"/>
    <path style="fill:#231916;fill-opacity:1;fill-rule:evenodd;stroke:none" id="v" d="M0 0c-.065-.035-.132-.066-.232-.1C-.967-.568-1.535-1.635-.5-2.402c.5-1.869-.9-2.337-1.501-3.739.033-.066.033-.166.101-.267.198-.033.433-.066.631-.132.302.066.669.132 1.037.233 1.869.467 4.439 1.268 4.039 3.803C2.838-.468 1.771.134 0 0" clip-path="url(#d)" transform="matrix(1.33333 0 0 -1.33333 1362.846 944.54869)"/>
    <path style="fill:#231916;fill-opacity:1;fill-rule:evenodd;stroke:none" id="w" d="M0 0c1.334.133 1.634.133 2.603 1.034.058.095.061.061.091.095.034 0 .023.049.043.086.034 1.702-.603 2.846-.935 3.156C-1.403 5.94-3.538 1.702 0 0" clip-path="url(#e)" transform="matrix(1.33333 0 0 -1.33333 1340.6441 926.74989)"/>
    <path style="fill:#231916;fill-opacity:1;fill-rule:evenodd;stroke:none" id="x" d="M0 0c.156-.035.354-.004.535.066.164.135.299.268.433.436.834 1.101 1.468 3.036.901 4.204-.301.166-.636.2-.901.166C-.868 4.706-2.304 1.268 0 0" clip-path="url(#f)" transform="matrix(1.33333 0 0 -1.33333 1348.8317 928.53043)"/>
    <path style="fill:#231916;fill-opacity:1;fill-rule:evenodd;stroke:none" id="y" d="M0 0c-.035-.032-.006-.065-.015-.132-.835-.7-1.854-2.639-2.789-2.771-.234 2.235.2 4.471.333 6.54.602 1.202.934 1.202 2.17 1.769.735.435 1.069.802 1.368 1.603V7.442C.967 9.278.4 9.612-1.068 9.847c-.233 1.299-.134 2.501-.201 3.669-.868.935-2.37-.233-2.802-1.034-1.67-1.302-.534-3.038-.735-5.139-.835-.601-2.002-1.369-2.737-2.102-.935-2.071-.533-2.372 1.402-3.171.267-1.035-.399-3.637-.535-4.472.067-1.535-.167-4.338 1.534-5.408C-3.038-7.274 1.101-2.302.967.335.566.401.3.168 0 0" clip-path="url(#g)" transform="matrix(1.33333 0 0 -1.33333 1394.3069 942.05776)"/>
    <path style="fill:#231916;fill-opacity:1;fill-rule:evenodd;stroke:none" id="z" d="M0 0c.067-2.736.034-5.373-.233-8.244-.268-.901-.834-2.168-.934-3.371-.035-.199-.035-.367 0-.567.033-.3.1-.599.233-.867.747.058 1.602.467 2.335 1.469C2.838-8.275 3.306-3.303 3.006.301 2.104 2.637.702 1.502 0 0" clip-path="url(#h)" transform="matrix(1.33333 0 0 -1.33333 1397.2861 931.73363)"/>
    <path style="fill:#231916;fill-opacity:1;fill-rule:evenodd;stroke:none" id="A" d="M0 0c-1.101.434-1.601.033-2.401-.469-.033-.199-.067-.433-.067-.666.267-8.71.501-17.719.067-26.564-.234-.834-.433-1.27.466-1.903 2.071.201 2.439 1.069 2.805 3.27.032 1.97-.057 9.455.066 9.545-.112.673-.049 3.336 0 3.471C.97-6.007.97-6.007.902-1.102.569-.5.369-.266 0 0" clip-path="url(#i)" transform="matrix(1.33333 0 0 -1.33333 1411.3017 920.65416)"/>
    <path style="fill:#231916;fill-opacity:1;fill-rule:evenodd;stroke:none" id="B" d="M0 0c-1.7.701-1.9-2.067-2.367-3.236-.201-1.469-1.605-6.507.634-7.577.499.034.765.235 1.201.536C.536-7.308.436-3.67.604-.6.469-.4.101-.133 0 0" clip-path="url(#j)" transform="matrix(1.33333 0 0 -1.33333 1406.6298 930.40029)"/>
    <path style="fill:#231916;fill-opacity:1;fill-rule:evenodd;stroke:none" id="C" d="M0 0c0 .066-.163.049-.163.082C-.321.18-.23.131-.26.157c-.054.056-.21.089-.21.155-.348.1-1.163.918-1.564 1.153 0 .067-.285.152-.285.221-.494.238-.662.567-.895.788-.238.149-.299.176-.518.407-.476.297-.687.619-.827.789-.118.096-.14.151-.174.151-.402.566-.834 1.068-1.269 1.536-.499.567-1 1.099-1.401 1.766-1.068.169-1.671-.266-1.569-1.467.535-1.802 1.636-3.672 2.97-5.306 1.435-1.736 3.137-3.236 4.838-4.205 1.702.066 3.239-.101 4.539 1.336.021.232.1.518-.066.735C2.173-.986 1.037-.467 0 0" clip-path="url(#k)" transform="matrix(1.33333 0 0 -1.33333 1456.7274 950.66589)"/>
    <path style="fill:#231916;fill-opacity:1;fill-rule:evenodd;stroke:none" id="D" d="M0 0c1.668.702 3.37 1.367 2.938 3.906C2.17 5.039 1.802 5.273.801 5.439c-.3-.132-.568-.265-.801-.4-.802-.434-1.169-.666-1.266-.666-.036 1.434-.036 2.67-.269 3.936-.7 1.77-.801 2.07-2.27 2.036-1.267-.266-2.503-1.469-.599-2.403.834-.766.466-3.971-.101-4.772C-6.207 2.303-7.978 1.434-9.611.5c-.733-.834-1.038-1.449-1.035-2.503.4-2.435 1.835-.801 3.538-1.301.201-.267-.134-1.799-.267-1.968-.167-.667-1.324-3.177-1.602-3.47-.567-1.904-3.405-4.006-4.873-4.906-.132-.202-.3-.403-.4-.601.1-1.134 1.036-1.636 2.171-1.837 1.167.1 1.899.1 2.868.969 1.77 2.635 3.587 5.566 4.688 8.637.034.084.028.141.072.176.601 1.868 1.714 4.068 2.848 5.503C-1.134-.467-.565-.231 0 0" clip-path="url(#l)" transform="matrix(1.33333 0 0 -1.33333 1448.7249 933.69189)"/>
    <path style="fill:#231916;fill-opacity:1;fill-rule:evenodd;stroke:none" id="E" d="M0 0c.368.066.636.166.869.332.268.201.501.501.703.902.465 2.302.8 4.472 1.101 6.742-.033.899-.168 1.501-.503 2.268-.733.267-1.067.202-1.301-.133-.135-.2-.266-.501-.433-.868-.5-1.869-.935-3.972-1.268-6.006C-.865 2.069-1.233.767 0 0" clip-path="url(#m)" transform="matrix(1.33333 0 0 -1.33333 1487.1676 928.79603)"/>
    <path style="fill:#231916;fill-opacity:1;fill-rule:evenodd;stroke:none" id="F" d="M0 0c.034-.4-.059-1.276-.162-1.506 0-.257-.259-.547-.439-.709-.107-.1-.504-.702-.56-.777-.7-.768-.917-.531-1.752-1.132-.233-.202-.616-.444-.849-.644-.933-.736-1.743-1.172-3.011-1.739-.335-.134-.67-.47-1.036-.602-.067-.536.435-.6 1.036-.536.5.069 1.034.234 1.268.301.601.235 1.168.47 1.768.701 1.3.534 2.672 1.003 4.037 1.269.793.149 2.557.578 3.744.669.666.049.852-.147 1.308-.219.633-1.168-1.1-2.27-1.769-2.603 0-.302.434-.402.869-.501 1.901.133 4.723.407 5.256 3.075 0 2.603-1.72 2.932-3.355 3.13-.36-.022-1.416-.068-2.815-.259-.684-.094-2.227-.553-2.304-.422.303.467 1.171 1.002 1.571 1.369C2.971-.068 2.27.033 1.868.567c-.365 2.002 1.804 1.435 2.604 2.502-.094.619-.64.953-1.162 1.212-.407.202-.779.385-1.04.456.166.868.967.969 1.734 1.168 1.103.834.402 3.138-.1 4.072-.868.433-2.432.668-2.734-.366.075 0 .032 0 0 0 .132-.936.367-1.802.032-2.838-.301-.165-.522-.115-.824-.248-.134-.1-.378-.42-.545-.485-.211-.966.007-1.747-.167-2.205-.103-.142-.217-.293-.334-.453-.536-.725-1.148-1.609-1.067-2.649C-1.337.033-.601.632 0 0" clip-path="url(#n)" transform="matrix(1.33333 0 0 -1.33333 1493.3096 925.23616)"/>
    <path style="fill:#231916;fill-opacity:1;fill-rule:evenodd;stroke:none" id="G" d="M0 0c.233.033.499.033.768.102.232.031.465.13.666.334 0 .832-.434 1.267-.666 1.9l-.036.034c-.2 1.002-.164 1.736.036 2.437.2.833.568 1.6.966 2.568.068 1.067-.033 1.602-.7 1.97-.099 0-.2 0-.266-.034-1.302-.133-1.537-.568-2.17-1.769-.201-.534-.436-1.201-.602-1.902-.365-1.403-.533-2.935 0-4.072C-1.669.834-1.034.268 0 0" clip-path="url(#o)" transform="matrix(1.33333 0 0 -1.33333 1483.2548 929.06429)"/>
    <path style="fill:#231916;fill-opacity:1;fill-rule:evenodd;stroke:none" id="H" d="M0 0c-.969-.066-1.668-.1-2.305.368-.098.101-.233.234-.366.366 0 .403.168.735.366 1.07.402.601 1.002 1.134 1.304 1.668.468 2.101.032 2.402-1.304 3.403l-.165.167c-.54.142-1.194.334-1.638.222-.149-.039-1.537-.041-1.755-.481-.077-.152-.188-.746-.265-.878-.198-.334 1.234-.124 1.756-.764.468-.501.634-.769.702-1.669-.935-1.369-1.435-1.835-.901-3.738-.368-.132-1.035-.3-1.771-.533-1.609-.537-2.043-.844-2.429-1.043-.233-.12-.621-.193-.755-.277-.28-.176-.431-.129-2.623-.215-.167 0-.298 0-.366-.102.034-.3.166-.632.366-.966.469-.834.67-.851 1.638-.985.132.035 1.3.064 1.467.129 1.064.121 1.934.641 2.702.754 1.101.168 2.304.135 2.87-.299.2-.968-.536-2.905-.965-3.839-.87-.867-1.337-.5-1.871.432l-.034.069c-.301 1.236-.468 1.436-1.368 1.202-.333-.935.068-2.37.165-3.538.368-1.101.436-1.801 1.203-2.302.234-.133.468-.266.802-.402 1.502.202 2.234.836 3.235 2.17l.034.066c.14.142.167.125.167.201 1.103 2.07 1.769 4.007 1.536 6.439.667.569 3.037.602 3.97.436.368-.235 1.091-.338 1.592-.738 1.566 0 2.849 2.373 1.613 4.042C4.173 1.103 2.235.435 0 0" clip-path="url(#p)" transform="matrix(1.33333 0 0 -1.33333 1496.7821 945.75176)"/>
    <path style="fill:#231916;fill-opacity:1;fill-rule:evenodd;stroke:none" id="I" d="M0 0c.268 1.537.668 3.604.067 4.707-.034 0-.034.035-.067.035-1.568.365-3.002-2.971-3.603-4.174-.5-2.535-.867-3.603 1.901-4.539C-.533-3.637-.433-2.033-.167-.864-.133-.598-.064-.3 0 0" clip-path="url(#q)" transform="matrix(1.33333 0 0 -1.33333 1480.5829 937.59296)"/>
    <path style="fill:#231916;fill-opacity:1;fill-rule:evenodd;stroke:none" id="J" d="M0 0l-.013-.022c-.012-.019-.024-.04-.036-.06C-.116-.215-.35-.35-.384-.449c-.075-.662-.053-1.092.126-1.407.009-.02.02-.039.031-.052.008-.011.017-.022.024-.032.046-.062.095-.123.154-.176.056-.057.121-.11.192-.159.014-.012.027-.022.034-.028.004-.001.007-.005.01-.006 0-.001.004-.002.004-.002.265-.178.631-.332 1.126-.505 1.503.466 2.004 2 2.204 3.634C3.128 3.274.843 1.395 0 0" clip-path="url(#r)" transform="matrix(1.33333 0 0 -1.33333 1350.1872 929.84549)"/>
  </g>
  <g transform="translate(-1336.3704589 -911.44245)" style="display:inline">
    <use style="display:inline" xlink:href="#s"/>
    <use style="display:inline" xlink:href="#t"/>
    <use style="display:inline" xlink:href="#u"/>
    <use style="display:inline" xlink:href="#v"/>
    <use style="display:inline" xlink:href="#w"/>
    <use style="display:inline" xlink:href="#x"/>
    <use style="display:inline" xlink:href="#y"/>
    <use style="display:inline" xlink:href="#z"/>
    <use style="display:inline" xlink:href="#A"/>
    <use style="display:inline" xlink:href="#B"/>
    <use style="display:inline" xlink:href="#C"/>
    <use style="display:inline" xlink:href="#D"/>
    <use style="display:inline" xlink:href="#E"/>
    <use style="display:inline" xlink:href="#F"/>
    <use style="display:inline" xlink:href="#G"/>
    <use style="display:inline" xlink:href="#H"/>
    <use style="display:inline" xlink:href="#I"/>
    <use style="display:inline" xlink:href="#J"/>
  </g>
</svg>
